<svg width="328" height="274" viewBox="0 0 328 274" fill="none" xmlns="http://www.w3.org/2000/svg">
<g filter="url(#filter0_dddd_4528_173)">
<rect width="277.758" height="185.172" rx="15.431" transform="matrix(1 0 0 -1 25.0754 190.958)" fill="url(#paint0_linear_4528_173)"/>
<rect x="-0.964437" y="0.964437" width="279.687" height="187.101" rx="16.3954" transform="matrix(1 0 0 -1 25.0754 192.887)" stroke="url(#paint1_linear_4528_173)" stroke-width="1.92887"/>
</g>
<mask id="mask0_4528_173" style="mask-type:alpha" maskUnits="userSpaceOnUse" x="25" y="5" width="278" height="186">
<rect x="25.0754" y="5.78687" width="277.758" height="185.172" rx="15.431" fill="black"/>
</mask>
<g mask="url(#mask0_4528_173)">
<g opacity="0.4">
<g filter="url(#filter1_f_4528_173)">
<path d="M30.8623 190.958L297.047 190.958L180.456 86.196C174.623 80.9544 171.706 78.3336 168.409 77.3395C165.504 76.4638 162.405 76.4638 159.501 77.3395C156.203 78.3336 153.286 80.9544 147.453 86.196L30.8623 190.958Z" fill="#334155" fill-opacity="0.4"/>
</g>
<g filter="url(#filter2_f_4528_173)">
<path d="M46.2932 190.958L281.616 190.958L182.333 80.2826C175.97 73.19 172.789 69.6438 169.04 68.335C165.747 67.1856 162.162 67.1856 158.869 68.335C155.12 69.6438 151.938 73.19 145.576 80.2826L46.2932 190.958Z" fill="#334155" fill-opacity="0.2"/>
</g>
<g filter="url(#filter3_f_4528_173)">
<path d="M30.8623 190.958L297.047 190.958L182.012 67.588C175.735 60.8564 172.597 57.4907 168.928 56.2415C165.703 55.1437 162.206 55.1437 158.981 56.2415C155.312 57.4907 152.174 60.8564 145.897 67.588L30.8623 190.958Z" fill="#334155" fill-opacity="0.1"/>
</g>
</g>
<g filter="url(#filter4_i_4528_173)">
<path d="M25.0754 190.959L302.833 190.959L180.065 85.2416C174.349 80.3196 171.491 77.8586 168.283 76.9211C165.456 76.0948 162.452 76.0948 159.625 76.9211C156.418 77.8586 153.56 80.3196 147.844 85.2417L25.0754 190.959Z" fill="url(#paint2_linear_4528_173)"/>
</g>
<path d="M27.969 187.101L147.857 84.2181C153.57 79.3162 156.426 76.8652 159.629 75.9324C162.452 75.1104 165.452 75.1121 168.274 75.9374C171.476 76.8737 174.329 79.328 180.036 84.2365L301.869 189.03" stroke="#475569" stroke-opacity="0.06" stroke-width="1.92887"/>
<g style="mix-blend-mode:multiply" opacity="0.7">
<g filter="url(#filter5_f_4528_173)">
<path d="M30.8623 5.78723L297.047 5.78723L180.456 110.55C174.623 115.791 171.706 118.412 168.409 119.406C165.504 120.282 162.405 120.282 159.501 119.406C156.203 118.412 153.286 115.791 147.453 110.55L30.8623 5.78723Z" fill="#334155" fill-opacity="0.4"/>
</g>
<g filter="url(#filter6_f_4528_173)">
<path d="M46.2932 5.78723L281.616 5.78723L182.333 116.463C175.97 123.556 172.789 127.102 169.04 128.411C165.747 129.56 162.162 129.56 158.869 128.411C155.12 127.102 151.938 123.556 145.576 116.463L46.2932 5.78723Z" fill="#334155" fill-opacity="0.2"/>
</g>
<g filter="url(#filter7_f_4528_173)">
<path d="M30.8623 5.78723L297.047 5.78723L182.012 129.158C175.735 135.889 172.597 139.255 168.928 140.504C165.703 141.602 162.206 141.602 158.981 140.504C155.312 139.255 152.174 135.889 145.897 129.158L30.8623 5.78723Z" fill="#334155" fill-opacity="0.1"/>
</g>
<g filter="url(#filter8_f_4528_173)">
<path d="M40.5066 5.78723L287.402 5.78723L172.496 131.466C167.907 136.485 160.002 136.485 155.413 131.466L40.5066 5.78723Z" fill="#334155" fill-opacity="0.05"/>
</g>
<g filter="url(#filter9_f_4528_173)">
<path d="M28.9333 3.85815L298.976 3.85815L171.83 121.922C167.389 126.046 160.52 126.046 156.079 121.922L28.9333 3.85815Z" fill="#334155" fill-opacity="0.1"/>
</g>
</g>
<path d="M27.969 9.64448L147.857 112.527C153.57 117.429 156.426 119.88 159.629 120.813C162.452 121.635 165.452 121.633 168.274 120.808C171.476 119.872 174.329 117.417 180.036 112.509L301.869 7.71561" stroke="#475569" stroke-opacity="0.06" stroke-width="1.92887"/>
<g filter="url(#filter10_i_4528_173)">
<path d="M25.0754 5.78699L302.833 5.78699L180.065 111.504C174.349 116.426 171.491 118.887 168.283 119.825C165.456 120.651 162.452 120.651 159.625 119.825C156.418 118.887 153.56 116.426 147.844 111.504L25.0754 5.78699Z" fill="url(#paint3_linear_4528_173)"/>
</g>
<g filter="url(#filter11_f_4528_173)">
<rect x="25.0754" y="5.78687" width="277.758" height="185.172" stroke="url(#paint4_linear_4528_173)" stroke-width="30.862"/>
</g>
<rect x="26.0399" y="6.7513" width="275.829" height="183.243" rx="14.4665" stroke="white" stroke-opacity="0.4" stroke-width="1.92887"/>
<path d="M116.42 148.278H116.574C117.132 148.278 117.747 148.477 118.419 148.876C118.784 149.206 119.006 149.372 119.085 149.372H119.188C119.279 149.315 119.325 149.252 119.325 149.184V149.15L119.239 148.893C119.239 148.848 119.279 148.819 119.359 148.808C119.427 148.831 119.49 148.876 119.547 148.944H119.581V148.893C119.581 148.768 119.495 148.631 119.325 148.483C119.37 148.449 119.49 148.432 119.683 148.432C119.729 148.432 119.934 148.546 120.299 148.774C120.378 148.774 120.418 148.813 120.418 148.893V150.499C120.418 151.251 120.361 151.684 120.247 151.798L120.23 151.849L120.281 151.918V151.935C120.281 152.105 120.031 152.191 119.53 152.191C119.416 152.248 119.342 152.276 119.308 152.276H119.239C119.239 152.094 119.108 151.769 118.846 151.302C118.653 150.551 118.47 150.106 118.299 149.97C118.117 149.753 117.605 149.577 116.762 149.44L116.266 149.389L115.6 149.457L115.48 149.337C115.275 149.36 114.911 149.605 114.387 150.072L114.352 150.209V150.243H114.421C114.888 149.856 115.224 149.611 115.429 149.508V149.543C115.156 149.839 114.654 150.22 113.925 150.687C113.618 150.915 113.384 151.228 113.225 151.627C112.94 152.276 112.798 152.914 112.798 153.541C112.798 154.623 112.929 155.409 113.191 155.899C113.646 157.14 114.17 158.023 114.763 158.547C115.526 158.969 116.249 159.179 116.933 159.179H117.206C117.548 159.179 117.918 159.054 118.317 158.803C118.453 158.541 118.755 158.222 119.222 157.847C119.609 157.539 119.803 157.288 119.803 157.095V157.043L119.786 156.582C119.786 156.548 119.854 156.485 119.991 156.394C119.991 156.349 120.019 156.309 120.076 156.275H120.128L120.538 156.343H120.828C120.919 156.343 120.965 156.423 120.965 156.582C121.079 157.106 121.136 157.499 121.136 157.761C121.136 158.342 121.062 158.82 120.914 159.196V159.248L120.931 159.367L120.845 159.504V159.538C120.845 159.561 120.942 159.589 121.136 159.624V159.658L120.008 160.204H119.974C119.792 159.965 119.649 159.686 119.547 159.367L119.53 159.35C119.382 159.407 119.125 159.549 118.761 159.777C117.861 160.153 117.308 160.341 117.103 160.341L116.078 160.034L115.873 159.999H115.771L115.549 160.068C115.287 160.068 114.865 159.948 114.284 159.709C113.817 159.595 113.418 159.282 113.088 158.769C112.291 157.619 111.892 156.73 111.892 156.104C111.789 155.694 111.738 155.38 111.738 155.164C111.75 155.05 111.824 154.993 111.96 154.993L111.995 155.147V155.232H112.063L112.131 155.181V155.113C112.131 154.965 112 154.862 111.738 154.805C111.704 154.805 111.681 154.184 111.67 152.943C111.67 152.669 111.824 152.162 112.131 151.422C112.154 151.422 112.182 151.257 112.217 150.927C112.262 150.915 112.308 150.784 112.353 150.534C112.695 150.146 113.117 149.787 113.618 149.457C113.834 149.252 114.165 149.053 114.609 148.859C115.463 148.472 116.067 148.278 116.42 148.278ZM115.839 148.654V148.705H115.873C116.021 148.694 116.095 148.66 116.095 148.603L116.044 148.586H116.027C115.913 148.586 115.85 148.608 115.839 148.654ZM116.967 148.586H116.95V148.637L117.223 148.688H117.257L117.291 148.637C117.291 148.603 117.183 148.586 116.967 148.586ZM114.37 149.201V149.235H114.387C114.58 149.189 114.802 149.081 115.053 148.91V148.893L115.019 148.876H115.002C114.751 148.922 114.54 149.03 114.37 149.201ZM116.864 149.047C116.864 149.093 117.109 149.155 117.599 149.235L117.684 149.303H117.804L117.855 149.235V149.201C117.741 149.201 117.622 149.144 117.496 149.03C117.28 148.939 117.126 148.893 117.035 148.893C116.921 148.893 116.864 148.944 116.864 149.047ZM118.897 149.543H118.846V149.577C118.937 149.713 119.023 149.782 119.102 149.782H119.12L119.188 149.73V149.713C119.085 149.599 118.989 149.543 118.897 149.543ZM114.199 149.901H114.25C114.296 149.89 114.33 149.861 114.352 149.816H114.318C114.273 149.816 114.233 149.844 114.199 149.901ZM114.011 150.123H114.079L114.147 150.072V150.004C114.056 150.004 114.011 150.044 114.011 150.123ZM119.102 150.072L119.068 150.123V150.158L119.12 150.192L119.188 150.123L119.12 150.072H119.102ZM112.866 150.534C113.003 150.534 113.099 150.482 113.156 150.38V150.328H113.088C112.974 150.328 112.9 150.397 112.866 150.534ZM119.683 151.183L119.649 151.217V151.268L119.701 151.285L119.752 151.234L119.735 151.183H119.683ZM119.41 151.593V151.627C119.604 151.57 119.701 151.513 119.701 151.456C119.678 151.411 119.649 151.376 119.615 151.354H119.547C119.456 151.445 119.41 151.525 119.41 151.593ZM119.478 151.866L119.41 151.935V152.02H119.478C119.547 152.02 119.592 151.992 119.615 151.935V151.918L119.581 151.866H119.478ZM112.593 152.618V152.652H112.644L112.729 152.584V152.464H112.661C112.615 152.498 112.593 152.55 112.593 152.618ZM112.063 152.789H112.029L111.96 153.045V153.199H111.995C112.04 153.199 112.063 153.142 112.063 153.028V152.789ZM111.995 153.37H111.926V153.455H111.995L112.029 153.421L111.995 153.37ZM112.456 154.737V155.044C112.479 155.318 112.632 155.659 112.917 156.07L112.951 156.104H113.02V156.018C112.803 155.369 112.65 154.72 112.558 154.07H112.541C112.484 154.07 112.456 154.293 112.456 154.737ZM112.131 154.173H112.114L112.097 154.275V154.429L112.148 154.498L112.2 154.446V154.344C112.2 154.241 112.177 154.184 112.131 154.173ZM112.097 155.437H112.046V155.489L112.114 155.54H112.131V155.489L112.097 155.437ZM112.49 156.121L112.439 156.155C112.439 156.223 112.467 156.269 112.524 156.292H112.541L112.593 156.275V156.223L112.49 156.121ZM112.473 156.582H112.456V156.616C112.501 156.867 112.564 156.992 112.644 156.992H112.661C112.706 156.992 112.729 156.969 112.729 156.924L112.473 156.582ZM120.213 157.026L120.162 157.043V157.078L120.247 157.163H120.281C120.407 157.14 120.469 157.112 120.469 157.078V157.043L120.452 157.026H120.213ZM120.401 157.419V157.488C120.435 157.556 120.481 157.59 120.538 157.59C120.583 157.545 120.606 157.476 120.606 157.385V157.3C120.606 157.266 120.583 157.249 120.538 157.249C120.447 157.283 120.401 157.34 120.401 157.419ZM120.213 157.471L120.162 157.505V157.727L120.23 157.795H120.247L120.299 157.744V157.624C120.299 157.545 120.27 157.493 120.213 157.471ZM113.379 157.641V157.659C113.561 158.012 113.715 158.188 113.84 158.188V158.12C113.623 157.824 113.47 157.664 113.379 157.641ZM112.815 157.693L112.781 157.744L112.815 157.795H112.849L112.9 157.744L112.849 157.693H112.815ZM119.683 157.881L119.649 157.915V157.966H119.735L119.786 157.915V157.881H119.683ZM120.299 157.881H120.23V157.949H120.281L120.299 157.898V157.881ZM112.986 157.966H112.968V157.983C112.968 158.017 113.003 158.097 113.071 158.222H113.156V158.188C113.156 158.109 113.099 158.034 112.986 157.966ZM119.53 158.188V158.222H119.547L119.649 158.171V158.12H119.615C119.558 158.143 119.53 158.165 119.53 158.188ZM114.011 158.274L113.959 158.308C113.959 158.456 114.068 158.553 114.284 158.598H114.318L114.387 158.547C114.296 158.422 114.17 158.331 114.011 158.274ZM120.35 158.308H120.333V158.427L120.384 158.479H120.401V158.342L120.35 158.308ZM113.293 158.376H113.242C113.333 158.638 113.447 158.809 113.584 158.889H113.686V158.769C113.606 158.644 113.475 158.513 113.293 158.376ZM114.575 158.855H114.472V158.872C114.472 158.906 114.626 158.957 114.933 159.025V158.991C114.876 158.9 114.757 158.855 114.575 158.855ZM119.188 159.077V159.111C119.268 159.111 119.33 159.071 119.376 158.991V158.974H119.359C119.268 158.974 119.211 159.008 119.188 159.077ZM120.299 159.077L120.281 159.111L120.299 159.196L120.384 159.179V159.111L120.333 159.077H120.299ZM114.147 159.299L114.113 159.35C114.125 159.396 114.37 159.493 114.848 159.641C114.848 159.686 114.945 159.709 115.138 159.709L115.224 159.675V159.658C115.212 159.612 115.002 159.51 114.592 159.35C114.557 159.316 114.461 159.299 114.301 159.299H114.147ZM114.968 159.299L114.95 159.316V159.35C115.247 159.544 115.611 159.641 116.044 159.641H116.164L116.198 159.606C115.594 159.401 115.184 159.299 114.968 159.299ZM116.352 159.487C116.488 159.635 116.716 159.709 117.035 159.709C117.411 159.675 117.599 159.618 117.599 159.538V159.504C117.599 159.447 117.457 159.418 117.172 159.418H116.915C116.54 159.418 116.352 159.441 116.352 159.487ZM118.351 159.487L118.317 159.538H118.385L118.419 159.504L118.402 159.487H118.351ZM120.333 159.675L120.076 159.709V159.777L120.162 159.846H120.247C120.521 159.8 120.657 159.755 120.657 159.709V159.675H120.333ZM117.291 159.965L116.796 160.102V160.153L117.069 160.204H117.172C117.286 160.204 117.57 160.079 118.026 159.829V159.777H118.009C117.906 159.777 117.667 159.84 117.291 159.965ZM122.263 146.809L122.52 146.74L123.237 146.928L124.348 146.877C124.633 146.877 124.775 146.962 124.775 147.133C124.707 147.566 124.673 148.141 124.673 148.859V151.542L124.656 154.122L124.673 154.805L124.587 158.052C124.975 158.154 125.561 158.228 126.347 158.274L126.364 158.291V158.53C126.364 158.587 126.427 158.678 126.552 158.803C126.427 159.077 126.285 159.481 126.125 160.017L125.971 160.136H125.92C125.852 160.034 125.709 159.982 125.493 159.982L122.691 159.606C121.848 159.606 121.426 159.555 121.426 159.453C121.563 159.179 121.665 158.735 121.734 158.12H121.751V158.103L121.922 158.12H122.093C122.15 158.086 122.315 158.04 122.588 157.983C122.702 158.04 122.787 158.069 122.844 158.069H123.049C123.163 158.069 123.22 157.955 123.22 157.727C123.243 157.454 123.3 156.206 123.391 153.985C123.311 153.302 123.243 151.422 123.186 148.346C123.141 148.267 123.084 148.227 123.015 148.227L122.246 148.278C122.11 148.267 122.041 148.221 122.041 148.141C122.087 147.253 122.161 146.809 122.263 146.809ZM122.434 147.133L122.332 147.167V147.202C122.332 147.304 122.389 147.355 122.503 147.355H122.554C122.679 147.355 122.805 147.293 122.93 147.167V147.133H122.434ZM123.306 147.133L123.272 147.185L123.408 147.219H123.579L123.648 147.167V147.133H123.306ZM123.853 147.8V147.817L123.904 147.868H123.972C124.075 147.8 124.2 147.731 124.348 147.663C124.405 147.572 124.433 147.504 124.433 147.458L124.399 147.424H124.348C124.246 147.424 124.143 147.486 124.04 147.612C123.915 147.646 123.853 147.709 123.853 147.8ZM122.349 147.526L122.263 147.612V147.731L122.332 147.8H122.674H122.793V147.731L122.486 147.595L122.383 147.526H122.349ZM123.682 148.91L123.648 148.962V149.03L123.682 149.081H123.716L123.733 149.03V148.962L123.716 148.91H123.682ZM123.648 149.867L123.596 149.918V149.953H123.682V149.867H123.648ZM124.399 151.046H124.348V151.063L124.416 151.149H124.433V151.097L124.399 151.046ZM124.433 151.354L124.365 151.302L124.348 151.644V151.849H124.365C124.411 151.849 124.433 151.769 124.433 151.61V151.354ZM123.545 151.747V151.815L123.579 151.849L123.613 151.815V151.73L123.596 151.695C123.596 151.684 123.642 151.65 123.733 151.593V151.542H123.665C123.585 151.587 123.545 151.656 123.545 151.747ZM124.416 151.969H124.348V152.105H124.365L124.416 152.071V151.969ZM123.784 153.917V153.968H123.818C123.875 153.968 123.904 153.734 123.904 153.267C123.881 153.267 123.841 153.484 123.784 153.917ZM124.177 154.72L124.143 154.754L124.109 155.83V157.266L124.143 157.932L124.16 157.949H124.28C124.325 157.949 124.348 157.898 124.348 157.795C124.337 155.745 124.28 154.72 124.177 154.72ZM123.477 157.266V157.334C123.477 157.414 123.499 157.454 123.545 157.454L123.613 157.351V157.231C123.591 157.095 123.568 157.026 123.545 157.026C123.499 157.026 123.477 157.106 123.477 157.266ZM122.451 158.376L122.417 158.427C122.417 158.519 122.457 158.564 122.537 158.564H122.554V158.427L122.503 158.376H122.451ZM125.817 158.376L125.715 158.393V158.427C125.726 158.496 125.823 158.53 126.005 158.53L126.091 158.462V158.393L125.988 158.376H125.817ZM121.956 158.427L121.922 158.479V158.53L121.99 158.564L122.024 158.496L122.007 158.427H121.956ZM122.793 158.615V158.633L122.879 158.65H122.981L123.049 158.615V158.564H122.93H122.913C122.833 158.564 122.793 158.581 122.793 158.615ZM125.886 158.889L124.912 158.855V158.872C124.912 158.94 125.106 158.98 125.493 158.991H125.937L126.057 158.957V158.906L125.886 158.889ZM122.674 158.906L122.622 158.991L122.656 159.043H122.913C123.095 159.043 123.186 159.025 123.186 158.991V158.957C123.061 158.923 122.901 158.906 122.708 158.906H122.674ZM125.339 159.333L125.407 159.35H125.749C125.852 159.35 125.909 159.333 125.92 159.299V159.248L125.817 159.231H125.561C125.413 159.242 125.339 159.276 125.339 159.333ZM121.751 159.248L121.7 159.333L121.751 159.35H121.836L121.888 159.333L121.819 159.248H121.751ZM125.835 159.658H125.732V159.726L125.835 159.76H125.886L125.988 159.726V159.658H125.886H125.835ZM129.337 147.509L129.918 147.424C130.317 147.424 130.63 147.629 130.858 148.039L130.978 148.586C130.955 148.802 130.83 149.087 130.602 149.44C130.454 149.588 130.226 149.662 129.918 149.662C129.201 149.662 128.756 149.554 128.585 149.337C128.415 149.11 128.335 148.791 128.346 148.381C128.301 148.381 128.278 148.369 128.278 148.346V148.312C128.62 147.777 128.973 147.509 129.337 147.509ZM128.996 147.936V147.953C129.383 147.908 129.577 147.857 129.577 147.8L129.491 147.766C129.161 147.822 128.996 147.879 128.996 147.936ZM129.286 148.432H129.303L129.406 148.449H129.44C129.565 148.449 129.645 148.403 129.679 148.312L129.662 148.278H129.457C129.366 148.278 129.309 148.329 129.286 148.432ZM130.516 148.278L130.465 148.364V148.432H130.482L130.533 148.364V148.278H130.516ZM130.106 148.842V148.893H130.175C130.254 148.893 130.317 148.853 130.362 148.774V148.722H130.328C130.249 148.722 130.175 148.762 130.106 148.842ZM129.73 149.15L129.679 149.201V149.235H129.987L130.038 149.201L129.987 149.15H129.73ZM127.56 150.773H127.612C127.703 150.852 127.817 150.892 127.953 150.892L128.175 150.79C129.725 150.79 130.499 150.835 130.499 150.927L130.516 151.046V151.337C130.619 151.564 130.67 151.781 130.67 151.986V152.259C130.533 154.116 130.442 155.62 130.397 156.77C130.374 156.838 130.351 156.958 130.328 157.129C130.34 157.174 130.391 157.197 130.482 157.197H130.533C131.148 157.197 131.456 157.271 131.456 157.419L131.439 157.454V157.556C131.576 157.829 131.644 158.262 131.644 158.855L131.712 159.538L131.661 159.572L130.909 159.606H129.201C127.925 159.606 127.287 159.504 127.287 159.299C127.287 159.174 127.253 159.048 127.184 158.923C127.219 158.843 127.276 158.781 127.355 158.735H127.407C127.452 158.781 127.503 158.803 127.56 158.803H127.594C127.925 158.803 128.318 158.775 128.773 158.718V158.684C127.794 158.615 127.304 158.536 127.304 158.445L127.287 158.308V158.12L127.253 157.676C127.253 157.562 127.68 157.505 128.534 157.505C128.648 157.505 128.705 157.249 128.705 156.736L128.91 152.242H128.876C128.557 152.242 128.398 152.219 128.398 152.174C128.398 152.162 128.415 152.145 128.449 152.123C127.765 152.123 127.424 152.043 127.424 151.883C127.378 151.872 127.355 151.826 127.355 151.747L127.441 151.542C127.441 151.496 127.407 151.433 127.338 151.354C127.429 151.263 127.492 151.08 127.526 150.807L127.56 150.773ZM127.834 151.114V151.183H127.919C128.215 151.183 128.363 151.16 128.363 151.114L128.329 151.046H128.278C127.982 151.046 127.834 151.069 127.834 151.114ZM130.157 150.995L130.106 151.046L130.175 151.097H130.209V151.046L130.157 150.995ZM128.21 151.354H127.902V151.405C127.902 151.45 127.982 151.473 128.141 151.473H128.329H128.38H128.944C129.115 151.473 129.201 151.445 129.201 151.388V151.371C129.201 151.314 128.87 151.308 128.21 151.354ZM129.73 151.371L129.577 151.354V151.388C129.656 151.388 129.753 151.445 129.867 151.559H129.901C129.924 151.559 129.935 151.542 129.935 151.507H129.969C130.015 151.507 130.044 151.559 130.055 151.661H130.089L130.328 151.49V151.388L129.969 151.371H129.73ZM129.662 152.328L129.747 152.584L129.628 152.891C129.673 152.994 129.713 153.045 129.747 153.045H129.764L129.799 152.943V152.84C129.799 152.43 129.861 152.225 129.987 152.225L130.038 152.157V152.088L129.987 152.037H129.884C129.736 152.037 129.662 152.134 129.662 152.328ZM129.132 153.951L129.081 156.155C129.092 156.235 129.109 156.275 129.132 156.275C129.166 156.275 129.189 156.223 129.201 156.121L129.184 155.865C129.24 155.808 129.303 155.58 129.371 155.181V155.079L129.337 154.839C129.406 154.782 129.44 154.742 129.44 154.72C129.394 154.594 129.371 154.469 129.371 154.344V154.31C129.417 154.31 129.474 153.672 129.542 152.396C129.508 152.305 129.474 152.259 129.44 152.259C129.269 152.259 129.166 152.823 129.132 153.951ZM129.969 152.447L129.901 152.464V152.567C129.901 152.635 129.93 152.686 129.987 152.721H130.038L130.089 152.652V152.567C130.066 152.51 130.026 152.47 129.969 152.447ZM129.884 155.232H129.799C129.708 155.654 129.662 155.967 129.662 156.172H129.679C129.736 156.172 129.81 155.939 129.901 155.472V155.352L129.884 155.232ZM129.559 156.838V156.958H129.594C129.651 156.935 129.679 156.867 129.679 156.753V156.633H129.628C129.605 156.633 129.582 156.702 129.559 156.838ZM129.594 157.095L129.542 157.163V157.249H129.594L129.662 157.197V157.146L129.611 157.095H129.594ZM130.961 157.505L130.909 157.522C130.978 157.579 131.103 157.613 131.285 157.624V157.573C131.285 157.528 131.211 157.505 131.063 157.505H130.961ZM131.029 158.222L130.824 158.274C130.847 158.41 130.949 158.479 131.131 158.479H131.183V158.427L131.148 158.376C131.148 158.365 131.194 158.331 131.285 158.274V158.188C131.285 158.109 131.262 158.063 131.217 158.052H131.148C131.114 158.063 131.074 158.12 131.029 158.222ZM127.765 158.069L127.646 158.103V158.12C127.737 158.211 128.09 158.262 128.705 158.274H128.825C128.916 158.274 128.973 158.245 128.996 158.188V158.154C128.517 158.097 128.107 158.069 127.765 158.069ZM129.371 158.274L129.44 158.359C129.542 158.359 129.594 158.302 129.594 158.188H129.508C129.44 158.188 129.394 158.217 129.371 158.274ZM130.978 158.615L130.926 158.684V158.718H130.961L131.012 158.65V158.615H130.978ZM129.662 158.718L129.44 158.735H129.201V158.803L129.44 158.82L129.935 158.786V158.735H129.867L129.662 158.718ZM131.405 159.299L131.336 159.35V159.401H131.439L131.456 159.35L131.439 159.299H131.405ZM137.419 150.123V150.089C137.522 150.192 137.75 150.272 138.103 150.328C138.33 150.328 138.809 150.59 139.538 151.114L139.76 151.2H139.845L140.153 151.354C140.461 151.57 140.637 151.735 140.683 151.849V151.883C140.683 151.929 140.614 152.014 140.478 152.14C140.444 152.333 140.204 152.709 139.76 153.267V153.336L139.777 153.507C139.618 153.507 139.458 153.546 139.299 153.626C139.23 153.626 139.168 153.546 139.111 153.387C138.78 153.182 138.615 153.017 138.615 152.891L138.82 152.345C138.82 152.128 138.444 151.974 137.693 151.883L136.582 151.815C136.195 151.815 135.665 151.969 134.993 152.276C134.628 152.47 134.344 152.869 134.139 153.472C133.979 154.008 133.848 154.327 133.746 154.429L133.575 154.31C133.495 154.389 133.455 154.52 133.455 154.703L133.677 154.583C133.711 154.583 133.734 154.623 133.746 154.703L133.626 155.489C133.672 155.5 133.78 155.836 133.951 156.497L133.899 156.599V156.668C133.956 156.725 134.002 156.912 134.036 157.231C134.139 157.573 134.463 157.881 135.01 158.154L135.916 158.82C136.929 158.82 137.824 158.598 138.598 158.154C139.373 157.482 139.76 157.043 139.76 156.838L139.692 156.582V156.548C139.714 156.48 139.965 156.206 140.444 155.728C140.466 155.728 140.557 155.808 140.717 155.967V156.035L140.649 156.052L140.512 156.035H140.495V156.104C140.928 156.138 141.144 156.246 141.144 156.428C141.326 156.668 141.514 157.032 141.708 157.522C141.776 157.522 141.833 157.659 141.879 157.932C142.015 157.989 142.095 158.052 142.118 158.12C142.118 158.222 142.05 158.279 141.913 158.291C141.651 158.371 141.406 158.558 141.178 158.855C140.78 158.456 140.569 158.257 140.546 158.257L139.606 158.855C139.299 159.014 139.008 159.202 138.735 159.418L136.975 159.982L136.702 160.017C136.337 160.017 135.796 159.903 135.078 159.675C134.304 159.344 133.882 159.088 133.814 158.906C132.857 157.755 132.379 156.867 132.379 156.24L132.327 155.659C132.419 155.227 132.464 154.737 132.464 154.19L132.925 153.079C132.925 152.76 133.142 152.35 133.575 151.849C133.791 151.337 134.412 150.852 135.437 150.397C135.824 150.272 136.485 150.18 137.419 150.123ZM134.549 151.046V151.114L135.437 150.773L136.001 150.516C136.217 150.471 136.326 150.431 136.326 150.397V150.38C135.836 150.38 135.249 150.602 134.566 151.046H134.549ZM137.915 150.499L137.812 150.482L137.778 150.499V150.551L137.829 150.585H137.915V150.499ZM136.206 151.029V151.114L136.394 151.149C137.066 151.149 137.442 151.092 137.522 150.978C137.522 150.944 137.431 150.921 137.248 150.909C136.747 150.921 136.4 150.961 136.206 151.029ZM137.881 151.029H137.675V151.046C137.675 151.114 137.789 151.16 138.017 151.183L138.068 151.114C138.068 151.058 138.006 151.029 137.881 151.029ZM138.256 151.183H138.222V151.2L138.274 151.285H138.325V151.234L138.256 151.183ZM135.54 151.354V151.422H135.608C135.87 151.365 136.001 151.308 136.001 151.251L135.95 151.2H135.916C135.665 151.28 135.54 151.331 135.54 151.354ZM134.309 151.234L134.224 151.302V151.354H134.275L134.378 151.251V151.234H134.309ZM136.497 151.542L136.667 151.576H136.684C137.049 151.564 137.243 151.525 137.265 151.456V151.405H137.077C136.69 151.405 136.497 151.45 136.497 151.542ZM137.761 151.422H137.607V151.456C137.607 151.49 137.761 151.519 138.068 151.542V151.507L137.761 151.422ZM139.213 151.644H139.128V151.712H139.162L139.213 151.661V151.644ZM134.993 151.678L134.925 151.781V151.798H134.993L135.044 151.73L134.993 151.678ZM140.051 152.054V152.071L140.153 152.105H140.17L140.256 152.003V151.918L140.221 151.883C140.107 151.883 140.051 151.94 140.051 152.054ZM134.07 152.225H134.104C134.264 152.134 134.344 152.043 134.344 151.952C134.207 151.952 134.116 152.043 134.07 152.225ZM133.523 152.891V152.909L133.575 152.96H133.592C133.717 152.857 133.78 152.76 133.78 152.669V152.635H133.746C133.598 152.715 133.523 152.8 133.523 152.891ZM133.626 153.267H133.575L133.267 153.797V153.882L133.318 153.951H133.37C133.415 153.951 133.501 153.763 133.626 153.387V153.267ZM132.925 155.489V155.54C132.925 155.654 132.977 155.722 133.079 155.745C133.159 155.745 133.17 155.563 133.113 155.198L133.096 155.113H133.045C133.011 155.113 132.971 155.238 132.925 155.489ZM133.455 155.796C133.387 155.853 133.353 155.944 133.353 156.07C133.353 156.126 133.404 156.24 133.506 156.411C133.575 156.605 133.66 156.702 133.763 156.702V156.65C133.763 156.48 133.66 156.195 133.455 155.796ZM140.939 156.582H140.871V156.65C140.871 156.787 141.087 157.226 141.52 157.966L141.622 157.983L141.674 157.932C141.491 157.624 141.326 157.271 141.178 156.873L140.939 156.582ZM140.529 156.924V156.958C140.609 157.209 140.683 157.334 140.751 157.334L140.785 157.266V157.197C140.74 157.015 140.654 156.924 140.529 156.924ZM133.438 157.146H133.387V157.231C133.432 157.345 133.506 157.402 133.609 157.402C133.609 157.311 133.552 157.226 133.438 157.146ZM139.435 157.795H139.47C139.527 157.784 139.601 157.704 139.692 157.556V157.505C139.578 157.505 139.492 157.602 139.435 157.795ZM133.763 157.522V157.624C133.82 157.727 133.882 157.778 133.951 157.778H133.985V157.693C133.939 157.579 133.865 157.522 133.763 157.522ZM133.558 157.966H133.455V157.983C133.455 158.154 133.637 158.336 134.002 158.53H134.156V158.496C134.156 158.371 133.956 158.194 133.558 157.966ZM140.956 158.325V158.427L141.007 158.462H141.11C141.144 158.462 141.229 158.382 141.366 158.222V158.205C141.366 158.171 141.269 158.126 141.076 158.069C140.996 158.069 140.956 158.154 140.956 158.325ZM138.376 158.633H138.393L138.427 158.65C138.712 158.536 138.854 158.416 138.854 158.291C138.536 158.439 138.376 158.553 138.376 158.633ZM134.087 158.786C134.19 158.957 134.6 159.213 135.318 159.555L135.676 159.658H135.711V159.606C134.982 159.299 134.537 159.031 134.378 158.803C134.321 158.758 134.264 158.735 134.207 158.735H134.122C134.099 158.735 134.087 158.752 134.087 158.786ZM134.737 158.735H134.685C134.685 158.826 134.89 158.94 135.3 159.077L136.138 159.35H136.309L136.377 159.282V159.231H136.36C136.132 159.231 135.921 159.151 135.728 158.991L135.454 158.889H135.42L135.318 158.991H135.3C135.221 158.991 135.033 158.906 134.737 158.735ZM138.137 159.282H138.171C138.422 159.213 138.621 159.094 138.769 158.923V158.906H138.735C138.621 158.906 138.422 159.031 138.137 159.282ZM137.658 159.025V159.043H137.693C137.795 159.043 137.858 159.014 137.881 158.957V158.923C137.732 158.934 137.658 158.969 137.658 159.025ZM136.702 159.777V159.794C136.702 159.851 136.821 159.891 137.06 159.914V159.846L137.043 159.811L137.112 159.76L137.043 159.675H136.941C136.781 159.698 136.702 159.732 136.702 159.777ZM142.426 146.689L142.528 146.672H142.665C143.667 146.786 144.259 146.928 144.442 147.099C144.521 147.099 144.596 147.321 144.664 147.766L144.578 147.919V147.971C144.704 148.119 144.789 148.836 144.835 150.123C144.835 152.39 144.897 153.854 145.023 154.515H145.091C145.706 154.013 146.657 153.324 147.944 152.447C148.047 152.447 148.132 151.94 148.201 150.927C148.201 150.687 148.315 150.568 148.542 150.568L149.226 150.516C150.251 150.516 150.866 150.625 151.071 150.841V150.875L151.02 150.927C150.815 150.847 150.656 150.807 150.542 150.807L150.49 150.875V150.892C150.49 150.961 150.656 151.012 150.986 151.046C151.077 151.046 151.123 151.314 151.123 151.849C151.123 152.066 151.037 152.174 150.866 152.174C150.821 152.174 150.735 152.254 150.61 152.413L150.559 152.43L150.217 152.413H150.149C150.149 152.538 150.018 152.664 149.756 152.789C149.71 152.789 149.687 152.817 149.687 152.874L149.756 152.994L148.115 154.122L148.098 154.173C148.11 154.241 148.673 155.397 149.79 157.641C149.949 157.972 150.052 158.234 150.097 158.427H149.995L149.892 158.325H149.841C149.841 158.462 150.057 158.53 150.49 158.53C151.254 158.53 151.635 158.598 151.635 158.735L151.498 158.906C151.647 159.156 151.721 159.527 151.721 160.017C151.721 160.176 151.641 160.256 151.481 160.256L151.328 160.273C151.054 160.227 150.388 160.204 149.328 160.204H149.226C149.089 160.204 148.987 160.028 148.918 159.675C148.85 159.082 148.736 158.541 148.577 158.052C148.315 157.459 147.933 156.668 147.432 155.677C147.238 155.107 147.09 154.822 146.988 154.822C146.794 154.845 146.486 155.022 146.065 155.352C145.917 155.477 145.809 155.54 145.74 155.54C145.672 155.517 145.638 155.494 145.638 155.472V155.454L145.689 155.369V155.352H145.587C145.518 155.352 145.444 155.506 145.364 155.813L145.381 155.916C145.29 155.973 145.245 156.07 145.245 156.206L145.279 158.034C145.279 158.183 145.524 158.279 146.014 158.325C146.093 158.393 146.27 158.473 146.543 158.564L146.612 158.735L146.595 158.991V159.179L146.646 159.418V159.453C146.6 159.544 146.515 159.618 146.39 159.675L146.373 159.658H146.27V159.726C146.27 159.806 146.35 159.874 146.509 159.931V159.965C146.509 159.999 146.441 160.028 146.304 160.051L145.501 159.846C144.396 159.789 143.679 159.726 143.348 159.658L143.109 159.709C142.961 159.641 142.887 159.458 142.887 159.162V159.06L142.87 159.043C142.87 158.849 142.955 158.689 143.126 158.564H143.194V158.82L143.263 158.889H143.485L143.417 158.803V158.752L143.553 158.735H143.724L143.519 158.53L143.758 158.479V158.427C143.747 158.393 143.69 158.376 143.587 158.376H143.519L143.16 158.427V158.393C143.16 158.314 143.417 158.234 143.929 158.154C144.054 158.12 144.248 158.086 144.51 158.052L144.561 157.983V157.966C144.561 157.943 144.482 157.932 144.322 157.932C144.231 157.932 144.185 157.442 144.185 156.463C144.117 155.278 144.009 154.463 143.861 154.019C143.792 151.183 143.701 149.491 143.587 148.944C143.587 148.91 143.388 148.876 142.989 148.842L142.494 148.962C142.369 148.836 142.3 148.734 142.289 148.654L142.255 147.595L142.238 147.526C142.26 147.355 142.283 147.27 142.306 147.27L142.494 147.304V147.27C142.494 147.224 142.448 147.139 142.357 147.014V146.928C142.448 146.928 142.494 146.911 142.494 146.877L142.426 146.757V146.689ZM144.015 147.663V147.697C144.06 147.811 144.128 147.868 144.22 147.868C144.299 147.777 144.339 147.674 144.339 147.56L144.271 147.543C144.146 147.543 144.06 147.583 144.015 147.663ZM142.938 147.936V147.971C142.938 148.016 143.024 148.056 143.194 148.09V148.124C142.978 148.136 142.87 148.17 142.87 148.227V148.295L142.921 148.346H143.092C143.263 148.346 143.388 148.244 143.468 148.039L143.536 147.971C143.536 147.902 143.399 147.868 143.126 147.868H143.058C142.978 147.879 142.938 147.902 142.938 147.936ZM144.288 149.44L144.254 149.508V149.85C144.254 150.123 144.282 150.26 144.339 150.26H144.356L144.408 150.209V149.97C144.396 149.617 144.356 149.44 144.288 149.44ZM148.799 150.602L148.696 150.619V150.67L148.713 150.721H148.799L148.833 150.67V150.636L148.799 150.602ZM148.389 151.593C148.4 151.741 148.423 151.815 148.457 151.815H148.577C148.611 151.815 148.628 151.792 148.628 151.747L148.542 151.542L148.628 151.234V151.183H148.594C148.457 151.251 148.389 151.388 148.389 151.593ZM149.944 151.73C149.944 151.764 150.126 151.792 150.49 151.815C150.616 151.792 150.678 151.764 150.678 151.73V151.661H150.559H150.217C150.035 151.661 149.944 151.684 149.944 151.73ZM144.288 151.918H144.254V152.003L144.288 152.037L144.356 151.969L144.288 151.918ZM148.32 151.969L148.389 152.037H148.406C148.497 152.037 148.548 152.014 148.56 151.969V151.918H148.491C148.4 151.918 148.343 151.935 148.32 151.969ZM148.15 152.755V152.772H148.167C148.212 152.772 148.389 152.669 148.696 152.464C148.81 152.453 148.867 152.419 148.867 152.362V152.293H148.765C148.628 152.293 148.423 152.447 148.15 152.755ZM148.115 153.507V153.558H148.15C148.571 153.444 149.106 153.114 149.756 152.567L149.79 152.498H149.756C149.186 152.704 148.639 153.04 148.115 153.507ZM145.176 154.754V154.805H145.245C145.393 154.805 145.518 154.737 145.621 154.6V154.549C145.461 154.549 145.313 154.617 145.176 154.754ZM147.244 154.72C147.324 154.936 147.409 155.044 147.5 155.044H147.517V155.027C147.506 154.777 147.432 154.651 147.295 154.651C147.261 154.651 147.244 154.674 147.244 154.72ZM144.715 154.771L144.664 154.856V154.873H144.715L144.749 154.822V154.771H144.715ZM145.877 155.147V155.181H145.911C146.139 155.09 146.338 154.965 146.509 154.805V154.771C146.088 154.953 145.877 155.079 145.877 155.147ZM144.681 155.642V155.796L144.715 155.83H144.766C144.823 155.808 144.852 155.745 144.852 155.642V155.608C144.852 155.483 144.829 155.358 144.783 155.232H144.766C144.709 155.232 144.681 155.369 144.681 155.642ZM147.893 155.625H147.842V155.642C147.956 156.075 148.161 156.554 148.457 157.078H148.542V157.026C148.542 156.787 148.326 156.32 147.893 155.625ZM144.664 156.309V156.548L144.715 156.582C144.806 156.582 144.852 156.525 144.852 156.411V156.138L144.818 156.104H144.766C144.698 156.115 144.664 156.183 144.664 156.309ZM148.799 156.24H148.748V156.275L148.816 156.343H148.833V156.275L148.799 156.24ZM144.852 156.958H144.783L144.766 157.061V157.231H144.783C144.829 157.22 144.852 157.163 144.852 157.061V156.958ZM148.628 157.266H148.594V157.3C148.685 157.585 148.782 157.761 148.884 157.829H148.953C148.953 157.738 148.85 157.55 148.645 157.266H148.628ZM144.681 157.983L144.766 158.069H144.783C144.84 158.046 144.869 158 144.869 157.932C144.869 157.852 144.852 157.812 144.818 157.812C144.727 157.869 144.681 157.926 144.681 157.983ZM149.294 158.393V158.427L149.346 158.496H149.482L149.551 158.427C149.516 158.359 149.465 158.325 149.397 158.325C149.328 158.336 149.294 158.359 149.294 158.393ZM146.39 158.701H146.338V158.735L146.407 158.786H146.424V158.735L146.39 158.701ZM145.757 158.906C145.837 159.054 145.957 159.128 146.116 159.128H146.133L146.185 159.077C146.139 158.94 146.082 158.849 146.014 158.803H145.945C145.854 158.803 145.792 158.838 145.757 158.906ZM151.396 158.872H151.345V158.957L151.396 158.991H151.447V158.906L151.396 158.872ZM144.647 158.906H144.613V158.957H144.681L144.647 158.906ZM145.211 158.906L145.176 158.957H145.262L145.211 158.906ZM143.365 159.111V159.128L143.382 159.162V159.179L144.185 159.196H144.288C144.652 159.196 144.835 159.168 144.835 159.111V159.077C144.835 159.054 144.709 159.037 144.459 159.025C143.821 159.048 143.456 159.077 143.365 159.111ZM150.319 159.077L150.268 159.128L150.354 159.196H150.422L150.49 159.128L150.439 159.077H150.319ZM150.781 159.162H150.61V159.179L150.695 159.231H150.781V159.162ZM151.396 159.418V159.709H151.413C151.459 159.709 151.481 159.589 151.481 159.35V159.231C151.424 159.253 151.396 159.316 151.396 159.418ZM145.364 159.248L145.313 159.282V159.333L145.569 159.35H145.672V159.333C145.672 159.276 145.569 159.248 145.364 159.248ZM143.912 159.384L143.861 159.418L145.706 159.675V159.624C145.706 159.464 145.359 159.384 144.664 159.384H143.912ZM145.945 159.606L145.877 159.624V159.658L145.911 159.709H146.048L146.082 159.658C146.071 159.624 146.025 159.606 145.945 159.606ZM150.183 159.965V159.982H150.251L150.61 160.017L151.02 159.982H151.071L151.123 159.948V159.931L151.02 159.914H150.354C150.24 159.914 150.183 159.931 150.183 159.965ZM161.357 145.835C161.608 145.835 161.813 145.903 161.972 146.04C161.836 146.404 161.745 146.98 161.699 147.766L161.545 149.337C161.545 149.417 161.773 149.457 162.229 149.457C163.573 149.457 164.245 149.52 164.245 149.645C164.302 149.645 164.37 149.679 164.45 149.748C164.336 149.896 164.279 150.004 164.279 150.072V150.123L164.33 150.465L164.108 151.217C164.108 151.297 164.194 151.411 164.365 151.559V151.593C164.091 151.684 163.869 151.73 163.698 151.73C163.516 151.718 163.425 151.69 163.425 151.644V151.61L163.579 151.593H163.698L163.767 151.525V151.49L163.698 151.473L162.553 151.49L161.614 151.473C161.557 151.473 161.494 151.792 161.426 152.43H161.409L161.169 152.157L161.118 152.345V152.447C161.13 152.766 161.169 152.937 161.238 152.96C161.283 152.96 161.323 152.857 161.357 152.652V152.533H161.409L161.426 152.584L161.306 154.224C161.443 156.582 161.562 157.761 161.665 157.761C161.722 158.126 161.864 158.308 162.092 158.308C162.217 158.388 162.371 158.427 162.553 158.427H162.861L163.886 158.376C163.909 158.376 163.949 158.678 164.006 159.282C164.029 159.464 163.989 159.595 163.886 159.675C163.795 159.766 163.636 159.811 163.408 159.811L162.092 159.846C161.374 159.846 160.771 159.646 160.281 159.248C159.962 159.134 159.802 158.792 159.802 158.222C159.78 157.915 159.74 157.004 159.683 155.489L159.888 153.165L159.939 152.157V152.02C159.859 151.542 159.723 151.302 159.529 151.302H159.017H158.418C158.248 151.302 158.077 151.342 157.906 151.422C157.792 151.411 157.65 151.257 157.479 150.961L157.82 149.44C157.82 149.394 158.51 149.366 159.888 149.355C159.888 149.206 159.968 149.019 160.127 148.791C160.173 147.014 160.235 146.125 160.315 146.125V146.074C160.315 146.051 160.287 146.04 160.23 146.04V145.989C160.23 145.954 160.606 145.903 161.357 145.835ZM160.708 146.296H160.691V146.399H160.742V146.33L160.708 146.296ZM161.443 146.33L161.374 146.399V146.433L161.426 146.826H161.46C161.597 146.689 161.665 146.569 161.665 146.467V146.399L161.614 146.33H161.443ZM160.828 146.962L160.776 146.911C160.754 147.025 160.742 147.173 160.742 147.355V147.424H160.776L160.828 147.133V146.962ZM160.879 147.68H160.845L160.776 149.372V149.389L160.828 149.44H160.862C160.942 149.44 160.981 149.298 160.981 149.013V148.62L160.947 147.783C160.924 147.714 160.902 147.68 160.879 147.68ZM157.923 149.645C157.923 149.725 157.974 149.765 158.077 149.765H158.333C158.8 149.765 159.233 149.742 159.632 149.696V149.662C159.632 149.605 159.353 149.577 158.794 149.577H158.077C157.974 149.577 157.923 149.599 157.923 149.645ZM163.254 149.577L163.032 149.662H162.827H162.536V149.713C162.787 149.782 163.003 149.816 163.186 149.816H163.579C163.601 149.816 163.613 149.799 163.613 149.765C163.59 149.639 163.527 149.577 163.425 149.577H163.254ZM163.732 149.748L163.681 149.782V149.816L163.732 149.833C163.846 149.833 163.909 149.81 163.92 149.765V149.748H163.732ZM158.196 149.97L158.162 150.004V150.106C158.162 150.22 158.544 150.277 159.307 150.277C159.694 150.277 159.888 150.249 159.888 150.192C159.888 150.055 159.387 149.981 158.384 149.97H158.196ZM161.836 150.123L161.785 150.175V150.192C161.785 150.249 161.99 150.283 162.4 150.294L162.69 150.277L163.083 150.346H163.151C163.231 150.346 163.271 150.311 163.271 150.243H163.254L161.955 150.123H161.836ZM163.681 150.499L163.613 150.568V150.585L163.681 150.636H163.767C163.869 150.636 163.932 150.602 163.954 150.534L163.903 150.499H163.681ZM158.35 150.568L158.282 150.619C158.282 150.665 158.31 150.687 158.367 150.687L158.794 150.704L159.256 150.687L159.273 150.67V150.636C159.136 150.59 158.88 150.568 158.504 150.568H158.35ZM159.683 150.892L158.282 150.841V150.875C158.282 150.955 158.715 150.995 159.58 150.995L159.717 150.961V150.944L159.683 150.892ZM162.126 150.944H162.041V150.995C162.052 151.018 162.252 151.075 162.639 151.166H162.673V151.132C162.491 151.006 162.309 150.944 162.126 150.944ZM162.998 151.114C163.305 151.217 163.579 151.268 163.818 151.268L163.886 151.2V151.097L163.835 151.046H163.459C163.151 151.046 162.998 151.069 162.998 151.114ZM160.623 151.73V151.866L160.674 151.918C160.719 151.906 160.742 151.866 160.742 151.798V151.73L160.708 151.61H160.691C160.645 151.621 160.623 151.661 160.623 151.73ZM161.255 152.037L161.169 151.969V152.02L161.238 152.088H161.255V152.037ZM160.708 152.071H160.674L160.657 152.157V152.242L160.674 152.345H160.742V152.191V152.105L160.708 152.071ZM160.742 153.25H160.691V153.387L160.742 153.455H160.776V153.387L160.742 153.25ZM159.922 155.42L159.973 155.899L159.956 156.497L159.973 156.668H160.025C160.093 156.668 160.127 156.4 160.127 155.865V155.472C160.127 154.948 160.104 154.686 160.059 154.686C159.979 154.686 159.933 154.93 159.922 155.42ZM161.033 156.77H160.999L160.981 156.89V157.026C160.981 157.106 161.004 157.152 161.05 157.163H161.084C161.13 157.152 161.152 157.112 161.152 157.043C161.141 156.861 161.101 156.77 161.033 156.77ZM161.169 157.505L161.101 157.693C161.101 157.955 161.158 158.12 161.272 158.188L161.306 158.12V157.966C161.295 157.681 161.249 157.528 161.169 157.505ZM160.503 157.624H160.452V157.881L160.486 157.983H160.503L160.537 157.949V157.659L160.503 157.624ZM160.999 158.701V158.718V158.82C161.01 158.866 161.05 158.912 161.118 158.957H161.238V158.923C161.238 158.798 161.158 158.724 160.999 158.701ZM162.895 159.043H162.963C163.385 158.974 163.596 158.9 163.596 158.82L163.562 158.786C163.117 158.9 162.895 158.986 162.895 159.043ZM160.571 158.803H160.537V158.872C160.571 159.156 160.697 159.299 160.913 159.299H161.084L161.118 159.248V159.231C161.118 159.208 161.016 159.168 160.811 159.111L160.571 158.803ZM169.73 151.49L170.208 151.627H170.362C171.011 151.946 171.615 152.328 172.173 152.772C172.754 153.273 173.045 153.649 173.045 153.9H173.01C172.919 153.74 172.828 153.66 172.737 153.66H172.72C172.686 153.66 172.669 153.683 172.669 153.729C172.714 153.854 172.817 154.07 172.976 154.378H173.01C173.033 154.378 173.062 154.321 173.096 154.207H173.113C173.147 154.219 173.187 154.384 173.232 154.703L173.386 155.044L173.352 155.266L173.403 155.882C173.324 156.166 173.25 156.542 173.181 157.009C173.136 157.226 172.606 158.034 171.592 159.436C171.137 159.868 170.692 160.085 170.259 160.085C169.861 160.13 169.411 160.153 168.91 160.153H168.585C168.391 160.153 167.884 159.988 167.064 159.658C166.028 158.735 165.509 158.029 165.509 157.539C165.361 157.231 165.236 156.947 165.133 156.685C165.133 156.537 165.287 156.047 165.595 155.215C165.595 154.691 165.72 154.327 165.971 154.122C166.506 152.971 167.184 152.225 168.004 151.883C168.722 151.621 169.297 151.49 169.73 151.49ZM166.654 156.856V156.958C166.814 157.266 166.99 157.596 167.184 157.949C167.184 158.063 167.4 158.222 167.833 158.427C168.038 158.667 168.42 158.855 168.978 158.991L169.285 159.025C169.787 158.923 170.163 158.815 170.413 158.701L171.028 158.188C171.666 157.505 171.974 156.93 171.951 156.463V156.309C171.883 156.126 171.848 155.83 171.848 155.42C171.848 155.101 171.871 154.851 171.917 154.668C171.917 154.589 171.695 154.389 171.25 154.07C170.931 153.615 170.601 153.336 170.259 153.233H170.054C168.722 153.29 168.055 153.398 168.055 153.558C167.759 153.854 167.554 154.144 167.44 154.429C167.076 154.817 166.893 155.073 166.893 155.198C166.791 155.665 166.711 156.218 166.654 156.856ZM167.184 152.721L167.133 152.806V152.874C167.201 152.874 167.548 152.635 168.175 152.157L168.312 152.105L168.414 152.123C169.177 152.043 169.559 151.969 169.559 151.9V151.883L169.285 151.832C168.511 151.832 167.81 152.128 167.184 152.721ZM168.517 153.079V153.096L168.551 153.148H168.79L170.003 152.874V152.84L169.678 152.772C168.904 152.863 168.517 152.965 168.517 153.079ZM165.834 157.334L165.766 157.385V157.505C165.788 157.892 165.897 158.109 166.09 158.154L166.107 158.137V158.12C166.028 157.596 165.937 157.334 165.834 157.334ZM168.482 152.498V152.584C169.371 152.481 169.815 152.413 169.815 152.379L169.678 152.328H169.661C169.115 152.328 168.722 152.385 168.482 152.498ZM169.935 151.849C169.992 152.009 170.117 152.088 170.311 152.088L170.482 152.105L170.516 152.088V152.003C170.516 151.878 170.396 151.804 170.157 151.781C170.009 151.792 169.935 151.815 169.935 151.849ZM166.825 159.06H166.705V159.128C166.854 159.276 167.121 159.35 167.508 159.35H167.696C167.639 159.27 167.349 159.174 166.825 159.06ZM169.644 159.692V159.726C169.644 159.76 169.73 159.789 169.901 159.811C170.094 159.811 170.191 159.783 170.191 159.726V159.692C170.18 159.646 170.14 159.601 170.071 159.555H169.918C169.792 159.555 169.701 159.601 169.644 159.692ZM172.891 156.445C172.902 156.787 172.931 156.969 172.976 156.992H173.01C173.01 156.867 173.062 156.73 173.164 156.582V156.531L172.976 156.275H172.942C172.919 156.275 172.902 156.332 172.891 156.445ZM171.763 153.507H171.695C171.763 153.655 171.928 153.78 172.19 153.882H172.259L172.31 153.831V153.814C172.116 153.609 171.934 153.507 171.763 153.507ZM171.387 152.977V153.011C171.421 153.148 171.581 153.29 171.866 153.438H171.917L171.951 153.387V153.37C171.894 153.29 171.706 153.159 171.387 152.977ZM170.259 152.413L170.225 152.43C170.442 152.601 170.613 152.686 170.738 152.686L170.755 152.652V152.635C170.573 152.487 170.407 152.413 170.259 152.413ZM167.987 159.282V159.333C167.987 159.401 168.146 159.436 168.465 159.436L168.482 159.418V159.384C168.334 159.316 168.169 159.282 167.987 159.282ZM171.131 152.225L171.08 152.276C171.205 152.436 171.33 152.516 171.455 152.516C171.455 152.39 171.359 152.293 171.165 152.225H171.131ZM166.962 153.985V154.105H167.013C167.161 153.968 167.235 153.86 167.235 153.78V153.763H167.15C167.081 153.808 167.019 153.882 166.962 153.985ZM170.823 153.199C170.892 153.313 170.971 153.37 171.062 153.37L171.08 153.336V153.302C171.08 153.199 171.034 153.148 170.943 153.148C170.863 153.159 170.823 153.176 170.823 153.199ZM172.481 157.693V157.71C172.572 157.71 172.652 157.619 172.72 157.436V157.402H172.669C172.6 157.402 172.538 157.499 172.481 157.693ZM167.321 153.096C167.423 153.096 167.52 153.028 167.611 152.891V152.84C167.417 152.897 167.321 152.983 167.321 153.096ZM172.754 157.385H172.839L172.908 157.436C172.919 157.254 172.891 157.174 172.822 157.197H172.788L172.771 157.078L172.754 157.385ZM170.567 159.811H170.584C170.789 159.743 170.892 159.686 170.892 159.641L170.857 159.606C170.698 159.663 170.601 159.732 170.567 159.811ZM166.466 158.462L166.398 158.496V158.53L166.535 158.667H166.603C166.603 158.587 166.557 158.519 166.466 158.462ZM167.628 159.521V159.538H167.85L167.884 159.504L167.85 159.453H167.816C167.702 159.453 167.639 159.475 167.628 159.521ZM173.164 155.232L173.113 155.284V155.352L173.164 155.42L173.232 155.352V155.284L173.181 155.232H173.164ZM165.937 154.686C165.993 154.686 166.045 154.646 166.09 154.566V154.532C165.988 154.532 165.937 154.583 165.937 154.686ZM165.407 156.531L165.373 156.582C165.384 156.685 165.401 156.736 165.424 156.736L165.458 156.719V156.633L165.424 156.531H165.407ZM169.969 152.584V152.601L170.14 152.464L170.106 152.447C169.992 152.516 169.946 152.561 169.969 152.584ZM166.278 154.105H166.295C166.341 154.093 166.364 154.048 166.364 153.968H166.33C166.295 153.991 166.278 154.036 166.278 154.105ZM166.381 156.155L166.312 156.223V156.257H166.364L166.398 156.206V156.155H166.381ZM167.389 153.575H167.321V153.643H167.355L167.389 153.609V153.575ZM180.682 147.953L181.998 147.748H182.049C182.254 147.748 182.681 147.817 183.331 147.953C184.185 147.953 185.313 148.187 186.714 148.654C187.317 149.121 187.779 149.679 188.098 150.328C188.212 150.682 188.269 151.035 188.269 151.388V151.422C188.269 151.935 188.058 152.504 187.636 153.131C187.397 153.438 187.033 153.723 186.543 153.985C186.418 154.11 186.144 154.293 185.723 154.532C185.54 154.68 185.449 154.782 185.449 154.839C186.429 156.263 187.084 157.186 187.414 157.607C187.733 158.154 188.029 158.427 188.303 158.427C189.168 158.473 189.601 158.598 189.601 158.803L189.738 159.606C189.715 159.663 189.67 159.692 189.601 159.692H189.465L188.525 159.914C188.434 159.789 188.075 159.726 187.448 159.726C186.833 159.726 186.526 159.692 186.526 159.624C186.514 159.453 186.463 159.219 186.372 158.923L186.355 158.803V158.735C186.355 158.633 186.195 158.371 185.876 157.949C185.819 157.698 185.757 157.55 185.688 157.505C185.427 157.14 185.039 156.406 184.527 155.301C184.401 155.175 184.299 155.113 184.219 155.113L183.16 155.352C182.67 155.352 182.425 155.5 182.425 155.796V156.087C182.425 157.533 182.533 158.257 182.75 158.257L182.972 158.274H183.16L183.57 158.188C183.638 158.336 183.672 158.581 183.672 158.923L183.604 159.094L183.621 159.401C183.621 159.504 183.222 159.612 182.425 159.726L182.374 159.692L181.041 159.658H180.084C179.97 159.658 179.913 159.515 179.913 159.231V158.94C179.913 158.507 180.016 158.291 180.221 158.291L180.99 158.12L181.024 157.864C180.944 155.38 180.859 153.751 180.768 152.977C180.756 150.482 180.722 149.235 180.665 149.235L180.597 149.201L179.435 149.423L179.366 149.406L179.401 149.252H179.196V149.201H179.161L179.196 148.996V148.893C179.196 148.825 179.15 148.711 179.059 148.551C179.218 148.529 179.298 148.483 179.298 148.415L179.196 148.278C179.196 148.198 179.691 148.09 180.682 147.953ZM182.152 148.073L182.1 148.124L182.152 148.176H182.442V148.124L182.22 148.073H182.152ZM182.51 148.5C182.328 148.512 182.237 148.54 182.237 148.586C182.237 148.631 182.283 148.654 182.374 148.654H182.408C182.715 148.643 182.881 148.608 182.903 148.551L182.852 148.5H182.51ZM183.655 148.722L183.724 148.757H183.894C183.997 148.757 184.06 148.728 184.082 148.671C184.082 148.626 184.014 148.603 183.877 148.603C183.763 148.603 183.689 148.643 183.655 148.722ZM185.757 148.722L185.723 148.739V148.757C185.768 148.802 185.831 148.825 185.911 148.825V148.808C185.911 148.785 185.859 148.757 185.757 148.722ZM179.401 148.979V149.047L179.452 149.064C179.532 149.064 179.6 149.019 179.657 148.927V148.842L179.589 148.774H179.486C179.441 148.774 179.412 148.842 179.401 148.979ZM186.304 148.962V148.979C186.52 149.127 186.788 149.32 187.107 149.56H187.158V149.474C187.158 149.303 186.873 149.132 186.304 148.962ZM182.271 149.167V149.303L182.408 150.397C182.34 151.581 182.283 152.219 182.237 152.311L182.152 152.43V152.635L182.271 153.507C182.271 153.917 182.328 154.122 182.442 154.122H182.476C183.342 154.008 183.775 153.905 183.775 153.814C184.356 153.598 184.766 153.421 185.005 153.284C185.506 153.284 186.11 152.931 186.816 152.225C187.01 151.838 187.107 151.479 187.107 151.149V150.961C187.107 150.847 186.947 150.545 186.628 150.055C186.047 149.394 185.495 149.064 184.971 149.064L184.39 149.03C183.479 149.121 182.772 149.167 182.271 149.167ZM181.092 149.201L181.041 149.252V149.628L181.126 150.568H181.143L181.246 149.235L181.212 149.201H181.092ZM186.577 149.525L186.543 149.577L186.628 149.662H186.68V149.628L186.611 149.525H186.577ZM182.066 150.123L182.049 150.192V150.26C182.06 150.34 182.078 150.38 182.1 150.38L182.152 150.328V150.192L182.1 150.123H182.066ZM181.571 150.687L181.451 151.832L181.502 151.883H181.571L181.622 151.815V150.909C181.622 150.761 181.605 150.687 181.571 150.687ZM187.585 151.046L187.534 151.08V151.2L187.585 151.234H187.602L187.653 151.183V151.114L187.602 151.046H187.585ZM181.143 151.49H181.092V151.542L181.143 151.576H181.178V151.542L181.143 151.49ZM187.705 152.003H187.653V152.088L187.534 152.345V152.413L187.636 152.533C187.716 152.533 187.762 152.413 187.773 152.174C187.762 152.06 187.739 152.003 187.705 152.003ZM187.295 152.857C187.306 152.914 187.346 152.965 187.414 153.011H187.448C187.574 152.909 187.636 152.806 187.636 152.704L187.602 152.686C187.443 152.686 187.34 152.743 187.295 152.857ZM186.833 153.028V153.079H186.902C186.993 153.045 187.038 153 187.038 152.943H186.987C186.907 152.943 186.856 152.971 186.833 153.028ZM185.757 153.387V153.438H185.911C185.968 153.37 186.093 153.29 186.287 153.199L186.304 153.182V153.131C186.144 153.131 185.962 153.216 185.757 153.387ZM181.519 153.199L181.468 153.267V153.284L181.519 153.336L181.571 153.284V153.267L181.519 153.199ZM184.971 153.831V153.882C185.29 153.814 185.501 153.706 185.603 153.558V153.541H185.569C185.239 153.643 185.039 153.74 184.971 153.831ZM186.372 153.541L186.321 153.575V153.609H186.406V153.541H186.372ZM186.047 153.814L186.064 153.831H186.081L186.201 153.763V153.712H186.184C186.104 153.734 186.059 153.769 186.047 153.814ZM184.202 154.122V154.139H184.322C184.481 154.116 184.561 154.093 184.561 154.07L184.527 154.036H184.492C184.299 154.059 184.202 154.088 184.202 154.122ZM183.57 154.258V154.275H183.621C183.803 154.275 183.894 154.247 183.894 154.19V154.156H183.843C183.786 154.156 183.695 154.19 183.57 154.258ZM184.697 154.412L184.732 154.429H184.749C185.034 154.361 185.176 154.298 185.176 154.241L185.159 154.207H185.142C184.903 154.253 184.754 154.321 184.697 154.412ZM185.056 155.437V155.454C185.056 155.546 185.102 155.625 185.193 155.694H185.261V155.659C185.182 155.511 185.113 155.437 185.056 155.437ZM181.571 157.607L181.502 157.676V157.847H181.571L181.605 157.676L181.588 157.607H181.571ZM181.947 158.598V158.615L182.015 158.684H182.049C182.095 158.684 182.129 158.604 182.152 158.445V158.376L182.117 158.274H182.066C182.021 158.274 181.981 158.382 181.947 158.598ZM181.622 158.308H181.588L181.554 158.598V158.615H181.622L181.69 158.564V158.496C181.69 158.382 181.667 158.319 181.622 158.308ZM183.296 158.718L183.279 158.735V158.803H183.296L183.348 158.735V158.718H183.296ZM187.295 158.803L187.226 158.889L187.295 158.974H187.312L187.38 158.889V158.803H187.295ZM188.952 158.889V158.974L189.055 158.991H189.14L189.191 158.94V158.889L189.14 158.838H189.072C188.992 158.849 188.952 158.866 188.952 158.889ZM183.194 159.179L183.228 159.196H183.296L183.365 159.145V159.111L183.331 159.06C183.239 159.06 183.194 159.1 183.194 159.179ZM187.653 159.025H187.465V159.043L187.534 159.111H187.824V159.094C187.813 159.048 187.756 159.025 187.653 159.025ZM188.986 159.35L189.037 159.436H189.26C189.362 159.436 189.425 159.407 189.448 159.35C189.448 159.305 189.402 159.282 189.311 159.282H189.123C189.032 159.305 188.986 159.327 188.986 159.35ZM186.714 159.35L186.68 159.384C186.68 159.43 186.708 159.453 186.765 159.453L186.85 159.418L186.833 159.35H186.714ZM194.283 150.995C194.761 150.995 195.342 151.2 196.026 151.61C196.607 152.043 196.897 152.339 196.897 152.498C197.353 153.455 197.581 154.031 197.581 154.224L197.598 154.361C197.427 154.76 197.341 155.033 197.341 155.181L197.239 155.198H195.787C195.65 155.198 195.485 155.215 195.291 155.249C193.651 155.113 192.5 155.044 191.84 155.044H191.481C191.344 155.249 191.276 155.397 191.276 155.489C191.356 155.614 191.395 155.813 191.395 156.087C191.395 156.519 191.464 156.776 191.6 156.856L191.617 156.941V156.958L191.515 156.907V156.958L191.669 157.129C191.669 157.277 191.771 157.465 191.976 157.693C192.352 158.353 192.762 158.764 193.207 158.923C193.582 159.048 194.01 159.111 194.488 159.111C194.568 159.111 194.733 159.037 194.984 158.889C195.189 158.843 195.621 158.473 196.282 157.778V157.727C196.282 157.704 196.202 157.681 196.043 157.659L196.009 157.573C196.271 157.072 196.584 156.742 196.948 156.582C197.051 156.685 197.262 156.844 197.581 157.061C197.831 157.448 198.167 157.903 198.589 158.427V158.496C198.224 158.974 197.962 159.213 197.803 159.213H197.734C197.734 158.963 197.581 158.82 197.273 158.786C197.216 158.786 196.966 158.974 196.521 159.35C196.259 159.555 195.809 159.749 195.171 159.931C194.431 160.079 193.907 160.153 193.6 160.153L192.626 159.811C192.079 159.811 191.578 159.515 191.122 158.923C190.928 158.718 190.769 158.473 190.644 158.188C190.644 158.097 190.518 157.624 190.268 156.77C190.188 156.44 190.148 156.121 190.148 155.813V155.796C190.148 154.281 190.604 152.954 191.515 151.815C191.629 151.53 191.891 151.319 192.301 151.183C192.574 151.103 192.905 151.04 193.292 150.995C193.394 150.949 193.725 150.949 194.283 150.995ZM192.711 151.354V151.371H192.745C192.927 151.371 193.269 151.308 193.77 151.183C193.873 151.171 193.924 151.143 193.924 151.097L193.873 151.046H193.856C193.525 151.046 193.155 151.137 192.745 151.319L192.711 151.354ZM192.028 151.644V151.661L192.079 151.695H192.096C192.324 151.638 192.438 151.581 192.438 151.525V151.422L192.369 151.354H192.335C192.13 151.422 192.028 151.519 192.028 151.644ZM194.659 151.473H194.146V151.507C194.146 151.553 194.38 151.587 194.847 151.61H194.864V151.542C194.864 151.519 194.796 151.496 194.659 151.473ZM193.446 151.73V151.747C193.446 151.792 193.679 151.849 194.146 151.918L194.18 151.9V151.832C194.089 151.707 193.936 151.644 193.719 151.644H193.668C193.52 151.656 193.446 151.684 193.446 151.73ZM194.488 151.832V151.849C195.137 152.225 195.485 152.413 195.53 152.413H195.547L195.718 152.345L195.821 152.379L195.838 152.345V152.328C195.792 152.293 195.695 152.259 195.547 152.225L195.206 152.071C195.115 151.878 194.932 151.781 194.659 151.781H194.608C194.528 151.792 194.488 151.809 194.488 151.832ZM192.455 152.328C192.569 152.236 192.796 152.14 193.138 152.037V152.003L193.121 151.969H192.95C192.62 152.06 192.455 152.18 192.455 152.328ZM191.549 153.455V153.507C191.549 153.632 192.586 153.774 194.659 153.934L194.83 153.985L195.052 153.968C195.508 154.116 195.815 154.19 195.975 154.19C195.975 154.224 196.009 154.253 196.077 154.275C196.145 154.173 196.18 154.076 196.18 153.985V153.66C196.18 153.512 195.895 153.182 195.325 152.669C195.063 152.407 194.767 152.259 194.437 152.225L193.856 152.123C192.91 152.316 192.29 152.55 191.993 152.823C191.868 153.062 191.72 153.273 191.549 153.455ZM191.737 152.43V152.464H191.771C191.919 152.43 191.993 152.39 191.993 152.345V152.328H191.908C191.851 152.328 191.794 152.362 191.737 152.43ZM195.821 152.669C195.844 152.76 195.895 152.806 195.975 152.806H196.009L196.043 152.755V152.652L195.975 152.567C195.872 152.567 195.821 152.601 195.821 152.669ZM191.412 152.755L191.378 152.806V152.823H191.412L191.481 152.772V152.755H191.412ZM196.248 152.891H196.18C196.305 153.267 196.396 153.472 196.453 153.507H196.521L196.573 153.472C196.481 153.108 196.385 152.926 196.282 152.926L196.248 152.891ZM191.566 153.199C191.635 153.188 191.669 153.142 191.669 153.062V153.045C191.6 153.068 191.566 153.119 191.566 153.199ZM196.829 153.66L196.778 153.695V153.814L196.829 153.882C196.874 153.871 196.897 153.831 196.897 153.763V153.695L196.88 153.66H196.829ZM191.378 153.9V153.968L191.412 154.002H191.447C191.526 153.968 191.595 153.905 191.652 153.814V153.763H191.566C191.498 153.763 191.435 153.808 191.378 153.9ZM190.678 153.797C190.587 153.888 190.507 154.116 190.439 154.48H190.473C190.541 154.48 190.644 154.281 190.78 153.882C190.757 153.826 190.723 153.797 190.678 153.797ZM192.421 154.002V154.053C192.637 154.201 193.03 154.275 193.6 154.275H193.753L193.975 154.258V154.19C193.508 154.088 192.99 154.025 192.421 154.002ZM195.547 154.446H195.496V154.498H195.547V154.446ZM192.25 154.583V154.617C192.478 154.674 193.081 154.731 194.061 154.788V154.805V154.822L193.702 154.873C193.702 154.908 193.85 154.925 194.146 154.925C194.625 154.925 194.864 154.902 194.864 154.856C194.864 154.742 193.993 154.651 192.25 154.583ZM190.524 154.703H190.439V154.805C190.439 154.873 190.456 154.908 190.49 154.908C190.547 154.908 190.581 154.851 190.592 154.737L190.524 154.703ZM191.908 154.737L191.823 154.754V154.856H191.908V154.788V154.754V154.737ZM191.361 154.873V154.891H191.378L191.669 154.856V154.822L191.617 154.754H191.566C191.464 154.754 191.395 154.794 191.361 154.873ZM195.513 154.908C195.513 154.953 195.616 154.976 195.821 154.976L195.975 154.959V154.925C195.975 154.879 195.866 154.856 195.65 154.856C195.559 154.879 195.513 154.896 195.513 154.908ZM190.439 155.352V155.403V155.42C190.427 155.454 190.421 155.534 190.421 155.659V155.728C190.421 155.933 190.478 156.115 190.592 156.275H190.609C190.609 155.728 190.552 155.42 190.439 155.352ZM190.746 156.838H190.695V156.873L190.746 156.907H190.78V156.873L190.746 156.838ZM190.866 157.129L190.849 157.146V157.18C190.894 157.362 190.963 157.454 191.054 157.454V157.436V157.402C191.054 157.311 190.991 157.22 190.866 157.129ZM196.436 157.283L196.47 157.334H196.555C196.624 157.334 196.664 157.311 196.675 157.266L196.607 157.197H196.59C196.51 157.197 196.459 157.226 196.436 157.283ZM196.043 158.274L196.077 158.291H196.094C196.219 158.291 196.299 158.217 196.333 158.069V158.034C196.208 158.034 196.111 158.114 196.043 158.274ZM197.239 158.24L197.256 158.257H197.307C197.376 158.211 197.41 158.148 197.41 158.069H197.359C197.279 158.114 197.239 158.171 197.239 158.24ZM197.837 158.069H197.82V158.103C197.854 158.24 197.905 158.308 197.974 158.308H197.991L198.025 158.274V158.257C198.002 158.131 197.939 158.069 197.837 158.069ZM196.846 158.427L196.897 158.462C197.068 158.405 197.154 158.331 197.154 158.24V158.205H197.136C196.977 158.205 196.88 158.279 196.846 158.427ZM195.513 158.803H195.547C195.639 158.769 195.69 158.712 195.701 158.633L195.684 158.615C195.57 158.684 195.513 158.746 195.513 158.803ZM196.521 158.889H196.59C196.704 158.786 196.761 158.712 196.761 158.667H196.743C196.595 158.712 196.521 158.786 196.521 158.889ZM191.669 159.043H191.617V159.111C191.64 159.168 191.737 159.231 191.908 159.299L191.976 159.35C191.851 159.156 191.748 159.054 191.669 159.043ZM192.865 159.111H192.848V159.128C192.848 159.174 192.967 159.225 193.207 159.282L193.224 159.265V159.231C193.076 159.151 192.956 159.111 192.865 159.111ZM193.873 159.299H193.822V159.35H193.873V159.299ZM195.65 159.555C195.764 159.555 195.855 159.47 195.923 159.299H195.872C195.724 159.379 195.65 159.464 195.65 159.555ZM194.454 159.726L194.095 159.692H194.027C193.924 159.692 193.867 159.715 193.856 159.76V159.794L193.924 159.846H194.232C194.585 159.846 195.001 159.783 195.479 159.658C195.456 159.589 195.388 159.555 195.274 159.555H195.189C194.915 159.555 194.67 159.612 194.454 159.726ZM201.083 150.311L203.202 150.26C203.384 150.26 203.766 150.34 204.347 150.499C205.008 151.126 205.401 151.616 205.526 151.969C205.776 152.231 205.976 152.749 206.124 153.524C206.306 153.706 206.397 154.11 206.397 154.737L206.414 155.164L206.346 156.856C206.346 157.197 206.557 157.619 206.978 158.12C207.366 158.496 207.616 158.684 207.73 158.684V158.718C207.73 158.855 207.531 159.071 207.132 159.367C206.836 159.663 206.648 159.811 206.568 159.811H206.551C206.369 159.789 205.907 159.453 205.167 158.803C203.823 159.327 203.145 159.595 203.134 159.606C202.69 159.743 202.194 159.811 201.647 159.811H201.562C200.947 159.709 200.423 159.47 199.99 159.094C199.91 159.025 199.745 158.741 199.494 158.24C199.289 157.989 199.187 157.681 199.187 157.317V156.821C199.187 156.502 199.272 156.206 199.443 155.933C199.591 155.466 199.847 155.022 200.212 154.6C200.394 154.384 200.577 154.247 200.759 154.19C201.351 153.871 201.938 153.712 202.519 153.712L203.288 153.695H203.39C203.823 153.695 204.13 153.757 204.313 153.882H204.415C204.472 153.882 204.501 153.86 204.501 153.814C204.375 153.279 204.17 152.766 203.886 152.276C203.635 151.855 203.168 151.644 202.484 151.644L201.784 151.542C201.18 151.667 200.878 151.792 200.878 151.918C200.639 152.225 200.497 152.607 200.451 153.062C200.428 153.119 200.223 153.148 199.836 153.148L199.734 153.182C199.688 153.182 199.631 153.279 199.563 153.472C199.244 153.427 199.084 153.358 199.084 153.267C199.107 153.199 199.147 152.789 199.204 152.037C199.386 151.513 199.819 151.029 200.502 150.585C200.821 150.403 201.015 150.311 201.083 150.311ZM202.997 150.602L202.963 150.653L203.014 150.721H203.117L203.134 150.687L203.083 150.602H202.997ZM204.296 150.739H204.261V150.773C204.353 150.864 204.432 150.909 204.501 150.909H204.518V150.875C204.427 150.784 204.353 150.739 204.296 150.739ZM201.562 150.824V150.875C201.573 150.909 201.63 150.927 201.733 150.927C201.835 150.927 201.978 150.892 202.16 150.824V150.756H202.092C201.841 150.756 201.664 150.778 201.562 150.824ZM200.024 151.371V151.405H200.041C200.144 151.405 200.297 151.297 200.502 151.08V151.029H200.485C200.371 151.029 200.218 151.143 200.024 151.371ZM202.399 151.251L202.314 151.319L202.365 151.405H202.587L202.638 151.354L202.536 151.251H202.399ZM199.887 152.635L199.836 152.669V152.926H199.853C199.899 152.914 199.922 152.874 199.922 152.806V152.669L199.887 152.635ZM206.09 154.002H206.073V154.036C206.095 154.127 206.118 154.173 206.141 154.173L206.158 154.088C206.135 154.031 206.113 154.002 206.09 154.002ZM205.697 154.6L205.645 154.634V154.686C205.691 154.856 205.737 154.942 205.782 154.942H205.816C205.816 154.794 205.782 154.68 205.714 154.6H205.697ZM200.69 154.703L200.502 154.788V154.873H200.537C200.616 154.873 200.673 154.828 200.708 154.737V154.703H200.69ZM200.502 156.326C200.582 157.009 200.679 157.351 200.793 157.351L200.964 157.573V157.59L200.81 157.573V157.624C201.026 157.921 201.471 158.194 202.143 158.445C202.223 158.49 202.336 158.524 202.484 158.547C202.69 158.547 203.476 158.211 204.842 157.539C204.934 157.482 204.979 157.419 204.979 157.351V157.266C204.877 156.799 204.791 156.252 204.723 155.625L204.689 155.608C204.689 155.483 204.563 155.38 204.313 155.301C203.47 155.061 202.895 154.942 202.587 154.942C201.721 155.135 201.129 155.426 200.81 155.813C200.605 156.018 200.502 156.189 200.502 156.326ZM205.645 155.215L205.594 155.181V155.232H205.645V155.215ZM205.714 155.54H205.611V155.608L205.663 155.659L205.714 155.608V155.54ZM205.167 155.967L205.116 156.018L205.167 156.087L205.235 156.07V156.018L205.184 155.967H205.167ZM205.782 156.018H205.731V156.035C205.754 156.468 205.799 156.685 205.868 156.685L205.902 156.65V156.616C205.902 156.377 205.862 156.178 205.782 156.018ZM205.116 156.565L205.099 156.582V156.685L205.15 156.753H205.167L205.235 156.685V156.582L205.184 156.565H205.116ZM206.568 158.171H206.517V158.274C206.562 158.422 206.614 158.496 206.671 158.496H206.722V158.445C206.676 158.262 206.625 158.171 206.568 158.171ZM200.28 158.222L200.246 158.257V158.274L200.28 158.308H200.366V158.274L200.315 158.222H200.28ZM206.038 158.445L205.987 158.496C206.021 158.576 206.067 158.627 206.124 158.65H206.141L206.209 158.581V158.547L206.124 158.445H206.038ZM203.561 158.684V158.718H203.629C203.789 158.718 204 158.65 204.261 158.513V158.496H204.193C203.806 158.541 203.595 158.604 203.561 158.684ZM206.414 158.735L206.38 158.803V158.838L206.449 158.906H206.517L206.568 158.872V158.838L206.483 158.735H206.414ZM202.194 158.872L202.143 158.923C202.166 158.98 202.211 159.008 202.279 159.008C202.405 158.986 202.467 158.957 202.467 158.923V158.906L202.416 158.872H202.194ZM200.332 159.111L200.28 159.179C200.326 159.282 200.611 159.413 201.135 159.572C201.306 159.652 201.533 159.692 201.818 159.692V159.675C201.818 159.641 201.602 159.578 201.169 159.487C200.918 159.418 200.656 159.293 200.383 159.111H200.332ZM214.718 146.689L215.47 146.672C215.937 146.763 216.171 146.831 216.171 146.877C216.194 146.877 216.216 147.042 216.239 147.373C216.364 147.521 216.427 147.617 216.427 147.663C216.37 148.21 216.319 149.326 216.273 151.012C216.251 151.012 216.239 151.069 216.239 151.183C216.148 151.24 216.102 151.302 216.102 151.371V151.644C216.102 151.872 216.045 152.134 215.932 152.43L215.914 152.669C215.914 152.715 215.977 152.749 216.102 152.772V152.891C215.932 154.338 215.846 155.284 215.846 155.728C215.846 156.252 215.812 156.514 215.744 156.514V156.548C215.812 156.548 215.852 156.622 215.863 156.77L215.846 156.89V156.958C215.846 157.174 215.778 157.698 215.641 158.53V158.923C216.211 159.048 216.495 159.213 216.495 159.418L216.41 159.504V159.658L216.495 159.794C216.404 160.034 216.08 160.153 215.521 160.153H215.419L215.334 160.017H215.146L214.684 160.119L214.035 160.102C213.989 160.102 213.938 159.811 213.881 159.231L213.915 158.684C213.767 158.684 213.534 158.809 213.215 159.06C212.269 159.584 211.438 159.868 210.72 159.914C210.06 159.743 209.467 159.413 208.943 158.923C208.772 158.752 208.596 158.484 208.414 158.12C208.208 157.835 208.106 157.664 208.106 157.607V157.539H208.157C208.237 157.596 208.385 157.79 208.601 158.12L208.687 158.137L208.704 158.12V157.898C208.704 157.67 208.584 157.397 208.345 157.078H208.26C208.191 157.078 208.152 157.18 208.14 157.385H208.089L208.055 157.3C208.077 156.856 208.095 156.565 208.106 156.428H208.208L208.226 156.582H208.26C208.317 156.559 208.345 156.502 208.345 156.411V156.087L208.311 156.035C208.277 156.035 208.26 156.081 208.26 156.172L208.157 156.275C208.134 156.275 208.117 156.235 208.106 156.155C208.106 155.301 208.385 154.389 208.943 153.421C209.205 152.965 209.467 152.601 209.729 152.328C210.094 151.997 210.669 151.832 211.455 151.832H211.609C212.816 151.832 213.801 152.145 214.565 152.772L214.684 152.84H214.736C214.838 152.339 214.941 151.069 215.043 149.03C215.1 148.939 215.146 148.893 215.18 148.893C214.815 148.654 214.565 148.534 214.428 148.534C214.325 148.534 214.263 148.141 214.24 147.355C214.263 147.333 214.354 147.316 214.513 147.304V147.236C214.502 147.19 214.456 147.167 214.377 147.167C214.32 147.133 214.291 147.093 214.291 147.048C214.291 146.934 214.422 146.877 214.684 146.877V146.809L214.616 146.74V146.706L214.718 146.689ZM214.736 147.424L214.718 147.475V147.492H214.923V147.475L214.872 147.424H214.736ZM215.692 147.595L215.658 147.646V147.663H215.914V147.612L215.795 147.595H215.692ZM215.163 147.919L215.197 147.971C215.47 147.959 215.607 147.925 215.607 147.868L215.539 147.817H215.334C215.254 147.817 215.197 147.851 215.163 147.919ZM214.718 147.851L214.684 147.902V147.936L214.804 147.971C214.872 147.971 214.912 147.948 214.923 147.902L214.872 147.851H214.718ZM210.925 152.276L210.874 152.345V152.43L210.925 152.464H211.011L211.096 152.396V152.345L211.028 152.276H210.925ZM211.933 152.464L211.967 152.533H212.719V152.464C212.651 152.396 212.463 152.356 212.155 152.345H211.985C211.95 152.356 211.933 152.396 211.933 152.464ZM216.017 152.43V152.345H216.102V152.43H216.017ZM209.763 152.806V152.874L209.798 152.891H209.866C210.265 152.789 210.464 152.669 210.464 152.533C210.452 152.487 210.396 152.464 210.293 152.464H210.208C210.037 152.464 209.889 152.578 209.763 152.806ZM213.437 152.635L213.198 152.652H213.164V152.704C213.437 152.817 213.613 152.874 213.693 152.874H213.71C213.71 152.76 213.619 152.681 213.437 152.635ZM215.094 152.721H215.026C215.026 152.834 215.049 152.891 215.094 152.891L215.111 152.874V152.823L215.094 152.721ZM211.489 153.028L211.455 153.062L211.489 153.079H211.557L211.609 153.045V153.028H211.489ZM209.012 154.224V154.275H209.063C209.131 154.253 209.205 154.122 209.285 153.882C209.627 153.404 209.854 153.165 209.968 153.165L210.037 153.045H209.934C209.889 153.045 209.701 153.159 209.37 153.387C209.154 153.706 209.034 153.985 209.012 154.224ZM210.925 153.148L210.891 153.199H211.062L211.113 153.165V153.148H210.925ZM211.814 153.233L211.848 153.25H211.882L212.258 153.199V153.165L212.138 153.148C211.922 153.159 211.814 153.188 211.814 153.233ZM212.719 153.148L212.685 153.199L212.736 153.25H212.839L212.873 153.199C212.85 153.165 212.805 153.148 212.736 153.148H212.719ZM213.505 153.165H213.437L213.505 153.233L213.539 153.199L213.505 153.165ZM213.881 153.267H213.693C213.693 153.313 213.858 153.381 214.189 153.472H214.206V153.421C214.115 153.319 214.006 153.267 213.881 153.267ZM209.114 156.599V156.856C209.114 157.015 209.33 157.476 209.763 158.24C210.082 158.41 210.424 158.496 210.789 158.496C211.575 158.496 212.338 158.308 213.078 157.932C213.386 157.465 213.653 157.231 213.881 157.231C214.006 157.106 214.143 156.679 214.291 155.95C214.382 155.745 214.428 155.534 214.428 155.318V155.147C214.428 154.668 214.365 154.429 214.24 154.429C213.978 154.19 213.847 154.048 213.847 154.002L213.915 153.9C213.915 153.854 213.75 153.786 213.42 153.695L213.317 153.626L213.334 153.592H213.591V153.575C213.591 153.461 212.97 153.398 211.728 153.387L211.489 153.336C210.578 153.427 210.122 153.546 210.122 153.695C209.701 154.196 209.427 154.811 209.302 155.54C209.177 155.973 209.114 156.326 209.114 156.599ZM214.103 153.9L214.035 153.968V154.105L214.12 154.19H214.172C214.217 154.179 214.24 154.133 214.24 154.053C214.24 153.985 214.206 153.934 214.137 153.9H214.103ZM208.841 155.745C208.841 155.779 208.858 155.796 208.892 155.796C208.972 155.796 209.029 155.682 209.063 155.454V155.352H209.012C208.955 155.352 208.898 155.483 208.841 155.745ZM214.274 158.325V158.427C214.343 158.427 214.377 158.479 214.377 158.581H214.411L214.496 158.496V158.359C214.451 158.325 214.428 158.268 214.428 158.188H214.377C214.308 158.2 214.274 158.245 214.274 158.325ZM212.993 158.462V158.53H213.01C213.124 158.484 213.215 158.41 213.283 158.308V158.274L213.249 158.24H213.215C213.135 158.274 213.061 158.348 212.993 158.462ZM211.284 158.684V158.735H211.489C212.241 158.689 212.657 158.581 212.736 158.41V158.359H212.685C211.808 158.507 211.341 158.615 211.284 158.684ZM215.197 158.427H215.18L215.163 158.564V158.786L215.197 158.838H215.231L215.265 158.786V158.615C215.265 158.502 215.242 158.439 215.197 158.427ZM209.148 158.581H209.08V158.633C209.08 158.701 209.268 158.752 209.644 158.786V158.735C209.382 158.633 209.217 158.581 209.148 158.581ZM209.541 158.855L209.49 158.889C209.49 159.014 209.826 159.139 210.498 159.265H210.583L210.618 159.231V159.213C210.618 159.088 210.293 158.969 209.644 158.855H209.541ZM214.377 158.923L214.291 158.991V159.025H214.343L214.411 158.957V158.923H214.377ZM211.711 159.06V159.094L211.762 159.128H211.865C212.229 159.105 212.412 159.071 212.412 159.025L212.36 158.991H212.036C211.819 158.991 211.711 159.014 211.711 159.06ZM215.316 159.043H215.231V159.094L215.265 159.128H215.351V159.094L215.316 159.043ZM210.566 159.555V159.606L210.583 159.658H210.806C210.988 159.658 211.256 159.618 211.609 159.538V159.504L211.113 159.453C210.749 159.475 210.566 159.51 210.566 159.555ZM215.59 159.589C215.601 159.635 215.658 159.658 215.761 159.658H216.102L216.222 159.624V159.589C216.222 159.555 216.154 159.527 216.017 159.504C215.732 159.515 215.59 159.544 215.59 159.589Z" fill="#6B1B1B"/>
</g>
<defs>
<filter id="filter0_dddd_4528_173" x="5.72205e-06" y="4.17233e-05" width="327.908" height="273.9" filterUnits="userSpaceOnUse" color-interpolation-filters="sRGB">
<feFlood flood-opacity="0" result="BackgroundImageFix"/>
<feColorMatrix in="SourceAlpha" type="matrix" values="0 0 0 0 0 0 0 0 0 0 0 0 0 0 0 0 0 0 127 0" result="hardAlpha"/>
<feOffset dy="3.85775"/>
<feGaussianBlur stdDeviation="3.85775"/>
<feColorMatrix type="matrix" values="0 0 0 0 0.117647 0 0 0 0 0.160784 0 0 0 0 0.231373 0 0 0 0.08 0"/>
<feBlend mode="normal" in2="BackgroundImageFix" result="effect1_dropShadow_4528_173"/>
<feColorMatrix in="SourceAlpha" type="matrix" values="0 0 0 0 0 0 0 0 0 0 0 0 0 0 0 0 0 0 127 0" result="hardAlpha"/>
<feOffset dy="15.431"/>
<feGaussianBlur stdDeviation="7.71549"/>
<feColorMatrix type="matrix" values="0 0 0 0 0.117647 0 0 0 0 0.160784 0 0 0 0 0.231373 0 0 0 0.07 0"/>
<feBlend mode="normal" in2="effect1_dropShadow_4528_173" result="effect2_dropShadow_4528_173"/>
<feColorMatrix in="SourceAlpha" type="matrix" values="0 0 0 0 0 0 0 0 0 0 0 0 0 0 0 0 0 0 127 0" result="hardAlpha"/>
<feOffset dy="32.7908"/>
<feGaussianBlur stdDeviation="9.64437"/>
<feColorMatrix type="matrix" values="0 0 0 0 0.117647 0 0 0 0 0.160784 0 0 0 0 0.231373 0 0 0 0.04 0"/>
<feBlend mode="normal" in2="effect2_dropShadow_4528_173" result="effect3_dropShadow_4528_173"/>
<feColorMatrix in="SourceAlpha" type="matrix" values="0 0 0 0 0 0 0 0 0 0 0 0 0 0 0 0 0 0 127 0" result="hardAlpha"/>
<feOffset dy="57.8662"/>
<feGaussianBlur stdDeviation="11.5732"/>
<feColorMatrix type="matrix" values="0 0 0 0 0.117647 0 0 0 0 0.160784 0 0 0 0 0.231373 0 0 0 0.01 0"/>
<feBlend mode="normal" in2="effect3_dropShadow_4528_173" result="effect4_dropShadow_4528_173"/>
<feBlend mode="normal" in="SourceGraphic" in2="effect4_dropShadow_4528_173" result="shape"/>
</filter>
<filter id="filter1_f_4528_173" x="23.1468" y="68.9671" width="281.616" height="129.707" filterUnits="userSpaceOnUse" color-interpolation-filters="sRGB">
<feFlood flood-opacity="0" result="BackgroundImageFix"/>
<feBlend mode="normal" in="SourceGraphic" in2="BackgroundImageFix" result="shape"/>
<feGaussianBlur stdDeviation="3.85775" result="effect1_foregroundBlur_4528_173"/>
</filter>
<filter id="filter2_f_4528_173" x="23.1467" y="44.3264" width="281.615" height="169.779" filterUnits="userSpaceOnUse" color-interpolation-filters="sRGB">
<feFlood flood-opacity="0" result="BackgroundImageFix"/>
<feBlend mode="normal" in="SourceGraphic" in2="BackgroundImageFix" result="shape"/>
<feGaussianBlur stdDeviation="11.5732" result="effect1_foregroundBlur_4528_173"/>
</filter>
<filter id="filter3_f_4528_173" x="-15.4307" y="9.12513" width="358.77" height="228.126" filterUnits="userSpaceOnUse" color-interpolation-filters="sRGB">
<feFlood flood-opacity="0" result="BackgroundImageFix"/>
<feBlend mode="normal" in="SourceGraphic" in2="BackgroundImageFix" result="shape"/>
<feGaussianBlur stdDeviation="23.1465" result="effect1_foregroundBlur_4528_173"/>
</filter>
<filter id="filter4_i_4528_173" x="25.0754" y="76.3014" width="277.758" height="114.658" filterUnits="userSpaceOnUse" color-interpolation-filters="sRGB">
<feFlood flood-opacity="0" result="BackgroundImageFix"/>
<feBlend mode="normal" in="SourceGraphic" in2="BackgroundImageFix" result="shape"/>
<feColorMatrix in="SourceAlpha" type="matrix" values="0 0 0 0 0 0 0 0 0 0 0 0 0 0 0 0 0 0 127 0" result="hardAlpha"/>
<feOffset dy="1.92887"/>
<feComposite in2="hardAlpha" operator="arithmetic" k2="-1" k3="1"/>
<feColorMatrix type="matrix" values="0 0 0 0 1 0 0 0 0 1 0 0 0 0 1 0 0 0 0.6 0"/>
<feBlend mode="normal" in2="shape" result="effect1_innerShadow_4528_173"/>
</filter>
<filter id="filter5_f_4528_173" x="23.1468" y="-1.92826" width="281.616" height="129.707" filterUnits="userSpaceOnUse" color-interpolation-filters="sRGB">
<feFlood flood-opacity="0" result="BackgroundImageFix"/>
<feBlend mode="normal" in="SourceGraphic" in2="BackgroundImageFix" result="shape"/>
<feGaussianBlur stdDeviation="3.85775" result="effect1_foregroundBlur_4528_173"/>
</filter>
<filter id="filter6_f_4528_173" x="23.1467" y="-17.3592" width="281.615" height="169.778" filterUnits="userSpaceOnUse" color-interpolation-filters="sRGB">
<feFlood flood-opacity="0" result="BackgroundImageFix"/>
<feBlend mode="normal" in="SourceGraphic" in2="BackgroundImageFix" result="shape"/>
<feGaussianBlur stdDeviation="11.5732" result="effect1_foregroundBlur_4528_173"/>
</filter>
<filter id="filter7_f_4528_173" x="-15.4307" y="-40.5057" width="358.77" height="228.126" filterUnits="userSpaceOnUse" color-interpolation-filters="sRGB">
<feFlood flood-opacity="0" result="BackgroundImageFix"/>
<feBlend mode="normal" in="SourceGraphic" in2="BackgroundImageFix" result="shape"/>
<feGaussianBlur stdDeviation="23.1465" result="effect1_foregroundBlur_4528_173"/>
</filter>
<filter id="filter8_f_4528_173" x="21.2179" y="-13.5015" width="285.473" height="168.02" filterUnits="userSpaceOnUse" color-interpolation-filters="sRGB">
<feFlood flood-opacity="0" result="BackgroundImageFix"/>
<feBlend mode="normal" in="SourceGraphic" in2="BackgroundImageFix" result="shape"/>
<feGaussianBlur stdDeviation="9.64437" result="effect1_foregroundBlur_4528_173"/>
</filter>
<filter id="filter9_f_4528_173" x="21.2179" y="-3.85734" width="285.473" height="136.588" filterUnits="userSpaceOnUse" color-interpolation-filters="sRGB">
<feFlood flood-opacity="0" result="BackgroundImageFix"/>
<feBlend mode="normal" in="SourceGraphic" in2="BackgroundImageFix" result="shape"/>
<feGaussianBlur stdDeviation="3.85775" result="effect1_foregroundBlur_4528_173"/>
</filter>
<filter id="filter10_i_4528_173" x="25.0754" y="5.78699" width="277.758" height="114.657" filterUnits="userSpaceOnUse" color-interpolation-filters="sRGB">
<feFlood flood-opacity="0" result="BackgroundImageFix"/>
<feBlend mode="normal" in="SourceGraphic" in2="BackgroundImageFix" result="shape"/>
<feColorMatrix in="SourceAlpha" type="matrix" values="0 0 0 0 0 0 0 0 0 0 0 0 0 0 0 0 0 0 127 0" result="hardAlpha"/>
<feOffset dy="-1.92887"/>
<feComposite in2="hardAlpha" operator="arithmetic" k2="-1" k3="1"/>
<feColorMatrix type="matrix" values="0 0 0 0 1 0 0 0 0 1 0 0 0 0 1 0 0 0 0.5 0"/>
<feBlend mode="normal" in2="shape" result="effect1_innerShadow_4528_173"/>
</filter>
<filter id="filter11_f_4528_173" x="-5.78645" y="-25.0752" width="339.482" height="246.896" filterUnits="userSpaceOnUse" color-interpolation-filters="sRGB">
<feFlood flood-opacity="0" result="BackgroundImageFix"/>
<feBlend mode="normal" in="SourceGraphic" in2="BackgroundImageFix" result="shape"/>
<feGaussianBlur stdDeviation="7.71549" result="effect1_foregroundBlur_4528_173"/>
</filter>
<linearGradient id="paint0_linear_4528_173" x1="138.879" y1="0" x2="138.879" y2="185.172" gradientUnits="userSpaceOnUse">
<stop offset="0.130208" stop-color="#EEF0F1"/>
<stop offset="0.848958" stop-color="#F9FAFA"/>
</linearGradient>
<linearGradient id="paint1_linear_4528_173" x1="138.879" y1="0" x2="138.879" y2="185.172" gradientUnits="userSpaceOnUse">
<stop stop-color="#475569" stop-opacity="0.06"/>
<stop offset="1" stop-color="#475569" stop-opacity="0.04"/>
</linearGradient>
<linearGradient id="paint2_linear_4528_173" x1="163.954" y1="71.3686" x2="163.954" y2="190.959" gradientUnits="userSpaceOnUse">
<stop offset="0.524194" stop-color="#F4F5F6"/>
<stop offset="1" stop-color="#EEF0F1"/>
</linearGradient>
<linearGradient id="paint3_linear_4528_173" x1="163.954" y1="5.78699" x2="163.954" y2="125.377" gradientUnits="userSpaceOnUse">
<stop offset="0.25" stop-color="#FAFAFB"/>
<stop offset="1" stop-color="#F4F5F6"/>
</linearGradient>
<linearGradient id="paint4_linear_4528_173" x1="163.954" y1="7.51744" x2="163.954" y2="190.959" gradientUnits="userSpaceOnUse">
<stop stop-color="#F9FAFA"/>
<stop offset="0.693396" stop-color="#EEF0F1"/>
</linearGradient>
</defs>
</svg>
